<?xml version="1.0" encoding="UTF-8"?>
<svg version="1.1" xmlns="http://www.w3.org/2000/svg" width="1344" height="768">
<path d="M0 0 C443.52 0 887.04 0 1344 0 C1344 253.44 1344 506.88 1344 768 C900.48 768 456.96 768 0 768 C0 514.56 0 261.12 0 0 Z " fill="#FCFCFC" transform="translate(0,0)"/>
<path d="M0 0 C0.76144602 1.41054755 1.50822502 2.82900938 2.25 4.25 C2.87648438 5.43335937 2.87648438 5.43335937 3.515625 6.640625 C7.72331484 16.16329147 9.84572948 25.58243123 11.1875 35.875 C11.4340332 37.62103516 11.4340332 37.62103516 11.68554688 39.40234375 C13.53252968 52.90700344 14.14934648 66.26014375 14.0625 79.875 C14.05746511 81.25650876 14.05290579 82.63801933 14.04882812 84.01953125 C14.03719571 87.34640246 14.0208528 90.67317602 14 94 C15.98 94.33 17.96 94.66 20 95 C19.99476318 94.1248877 19.98952637 93.24977539 19.98413086 92.34814453 C19.64340531 26.71318939 19.64340531 26.71318939 33 0 C38.01693365 -0.30873438 41.69319924 0.73328273 46.375 2.5 C47.01566406 2.73847656 47.65632813 2.97695312 48.31640625 3.22265625 C49.88087465 3.80641312 51.44092137 4.40199724 53 5 C53 5.66 53 6.32 53 7 C53.70125 7.185625 54.4025 7.37125 55.125 7.5625 C61.43952527 10.71976263 64.96317251 16.64141608 67.3046875 23.14453125 C69.90609308 33.82783171 67.58212545 43.85655566 64 54 C63.66097656 54.96164063 63.32195312 55.92328125 62.97265625 56.9140625 C57.78873927 70.30738538 50.03967738 82.89948217 42.0480957 94.78613281 C39.74452352 98.31781286 38.4319267 100.73945025 39 105 C40.65 105 42.3 105 44 105 C44.27585937 104.278125 44.55171875 103.55625 44.8359375 102.8125 C48.23597706 94.59763932 53.14309178 87.06371923 57.83740234 79.54394531 C59.85058017 76.28031627 61.72277877 72.94948332 63.5859375 69.59765625 C67.82393291 62.09697451 72.52033228 54.93535571 77.35595703 47.80908203 C78.77248477 45.71678869 80.17344324 43.6145814 81.57421875 41.51171875 C82.48085269 40.16865059 83.38837101 38.8261789 84.296875 37.484375 C84.91728668 36.54860626 84.91728668 36.54860626 85.55023193 35.59393311 C87.69177053 32.46941112 89.35571642 30.2703885 93 29 C102.84427947 36.77048456 109.62116453 46.28372014 111.41796875 58.9453125 C111.87945714 68.49936935 108.84180478 76.94269422 102.75 84.3125 C95.97239583 91.24176278 88.00119429 96.4397945 79.75 101.4375 C78.83702148 101.99735596 77.92404297 102.55721191 76.98339844 103.1340332 C72.92543115 105.62063114 68.85627498 108.08835603 64.78125 110.546875 C63.87101074 111.09903687 63.87101074 111.09903687 62.94238281 111.66235352 C61.36578263 112.61736566 59.78462655 113.56484539 58.203125 114.51171875 C55.8893511 115.81227892 55.8893511 115.81227892 55 118 C57.26758791 119.2671453 57.26758791 119.2671453 60 120 C62.10039245 119.08765839 62.10039245 119.08765839 64.0625 117.3125 C68.91630793 113.63624311 73.95435122 110.70016224 79.3125 107.8125 C84.81424501 104.84525503 90.2898577 101.85591422 95.68359375 98.6953125 C96.61453857 98.15156982 97.5454834 97.60782715 98.50463867 97.04760742 C100.2893574 96.00090044 102.06974618 94.94676287 103.8449707 93.8840332 C108.86997333 90.94887043 113.27890354 89.11390012 119 88 C119 87.34 119 86.68 119 86 C122.465 85.505 122.465 85.505 126 85 C126.5536602 100.01034319 125.304461 111.24796222 115 123 C110.83920738 127.26725214 106.29715418 130.30495665 101 133 C100.12794922 133.45052734 100.12794922 133.45052734 99.23828125 133.91015625 C93.01823756 136.71373988 86.70326899 136.27589674 80 136 C80.495 136.61875 80.99 137.2375 81.5 137.875 C83 140 83 140 83 142 C83.82242187 141.98839844 84.64484375 141.97679687 85.4921875 141.96484375 C92.40327971 141.90898042 99.14188265 142.13305966 106 143 C105.39030912 146.29820727 104.24502886 148.30698842 102.1875 150.9375 C101.65253906 151.62714844 101.11757813 152.31679688 100.56640625 153.02734375 C99.79103516 154.00380859 99.79103516 154.00380859 99 155 C98.21625 155.99 97.4325 156.98 96.625 158 C96.08875 158.66 95.5525 159.32 95 160 C96.258125 160.04125 97.51625 160.0825 98.8125 160.125 C104.37492914 160.66845572 109.50486145 162.20423624 114.8125 163.875 C115.63661377 164.13168457 116.46072754 164.38836914 117.30981445 164.65283203 C121.57076824 166.03366052 125.2158458 167.55346807 129 170 C130.98451771 170.71143088 132.98202112 171.38991336 135 172 C135 172.66 135 173.32 135 174 C135.73734375 174.27457031 136.4746875 174.54914063 137.234375 174.83203125 C159.54583687 184.25452715 177.57927168 207.22397921 187 229 C188.38884403 232.53137746 189.65666278 236.09399787 190.875 239.6875 C191.16141357 240.52998291 191.44782715 241.37246582 191.74291992 242.24047852 C195.24602978 253.12066362 196.36903694 263.79079918 196.3125 275.1875 C196.30758545 276.36932861 196.3026709 277.55115723 196.29760742 278.76879883 C196.06630761 296.1376351 192.92282144 314.8053403 184 330 C183.58234375 330.75023437 183.1646875 331.50046875 182.734375 332.2734375 C178.71571877 339.27296512 173.96360196 345.6465895 169 352 C168.49726562 352.66 167.99453125 353.32 167.4765625 354 C163.07188098 359.49948675 157.5531765 363.71481153 152 368 C150.82630859 368.91458984 150.82630859 368.91458984 149.62890625 369.84765625 C130.69030921 383.86796671 108.4031143 390.32468129 85.02900696 390.26742554 C83.64498101 390.2711695 82.26095716 390.27577397 80.87693661 390.28115618 C77.10172585 390.29330948 73.3266042 390.29313485 69.55137837 390.29076743 C65.4687326 390.29035731 61.38611467 390.30141695 57.30348206 390.31088257 C49.31522374 390.32745133 41.32699496 390.33299024 33.3387209 390.33410732 C26.84121381 390.33505975 20.34371641 390.33917974 13.84621239 390.34550858 C-4.60116184 390.36310967 -23.04851285 390.37234921 -41.49589553 390.37084763 C-42.48910303 390.37076772 -43.48231053 390.3706878 -44.50561523 390.37060547 C-45.50004431 390.37052371 -46.49447339 390.37044195 -47.51903669 390.37035771 C-63.62861898 390.36954511 -79.73810771 390.38867909 -95.84766295 390.4168822 C-112.4140769 390.44565482 -128.98044528 390.45942009 -145.54688483 390.45769465 C-154.83753242 390.45703226 -164.12808191 390.46245798 -173.41870689 390.48405075 C-181.3297391 390.50232026 -189.24062874 390.50656273 -197.15167298 390.4930319 C-201.18208676 390.48653126 -205.21222747 390.48627895 -209.24261475 390.5037384 C-239.80440464 390.627915 -239.80440464 390.627915 -253 386 C-255.08298293 385.37383316 -257.16626479 384.74865884 -259.25 384.125 C-285.68988778 374.8603493 -306.82993875 354.5938363 -319.62890625 329.90234375 C-332.6038552 302.43685353 -335.54099137 271.15357856 -325.7265625 242.12109375 C-323.87215469 237.09171498 -321.8270345 232.55427502 -319 228 C-318.4534375 227.05125 -317.906875 226.1025 -317.34375 225.125 C-305.26094141 204.6456634 -285.86508842 183.7127473 -262.05078125 177.49072266 C-259.23045352 176.82017801 -256.4164383 176.15157801 -253.56884766 175.60620117 C-248.60762697 174.55029481 -246.02373744 173.07431289 -243 169 C-241.6880423 165.82046616 -240.80091598 162.57575045 -239.9375 159.25 C-237.72762578 151.02951552 -234.82909803 143.59648789 -231 136 C-230.34 136 -229.68 136 -229 136 C-228.896875 135.28070313 -228.79375 134.56140625 -228.6875 133.8203125 C-223.91860866 114.25701964 -199.49000147 94.37024081 -183 84 C-171.82659478 77.26209807 -160.6104393 72.29377146 -148 69 C-146.31003906 68.54173828 -146.31003906 68.54173828 -144.5859375 68.07421875 C-135.24224593 65.6281655 -126.4517148 64.81825476 -116.8125 64.8125 C-115.75224609 64.80025391 -114.69199219 64.78800781 -113.59960938 64.77539062 C-103.16281432 64.75631056 -93.31658961 66.48105137 -83.25 69.125 C-82.54101562 69.30675781 -81.83203125 69.48851562 -81.1015625 69.67578125 C-79.3998829 70.11269899 -77.69975353 70.55564819 -76 71 C-76.33 70.01 -76.66 69.02 -77 68 C-78.2141164 55.94555858 -75.1452008 46.17702852 -67.55859375 36.7578125 C-65.1502863 34.04167628 -62.62888535 31.50370034 -60 29 C-56.57062543 30.41599982 -55.08133596 31.91551854 -53.0625 35 C-50.79995385 38.37448122 -48.5018006 41.70092314 -46.078125 44.9609375 C-39.55026399 53.76445717 -33.55867618 62.70971214 -28.04614258 72.18701172 C-26.71675748 74.47029426 -25.36662067 76.73883609 -24 79 C-23.59007812 79.69303223 -23.18015625 80.38606445 -22.7578125 81.10009766 C-20.64461748 84.40701231 -19.5305743 85.84983746 -15.6875 86.9375 C-14.800625 86.958125 -13.91375 86.97875 -13 87 C-13.33209473 86.43716309 -13.66418945 85.87432617 -14.00634766 85.29443359 C-20.37298608 74.45811909 -26.59556142 63.80698622 -31 52 C-31.33644531 51.15953125 -31.67289063 50.3190625 -32.01953125 49.453125 C-35.44427154 39.88261788 -35.3731146 28.23649484 -32.2890625 18.56640625 C-28.14709687 10.32012923 -20.86420323 5.29370917 -12.54296875 1.83984375 C-8.28597118 0.43392289 -4.48274753 -0.1280785 0 0 Z " fill="#156AC4" transform="translate(729,111)"/>
<path d="M0 0 C1.06025391 -0.01224609 2.12050781 -0.02449219 3.21289062 -0.03710938 C10.62017238 -0.05065102 17.54486582 0.82219113 24.8125 2.1875 C26.28712223 2.39648087 27.76232883 2.60141176 29.23828125 2.80078125 C39.62226731 4.66885512 39.62226731 4.66885512 43.03515625 9.0234375 C44.14295289 11.27045764 45.18984917 13.54846657 46.17578125 15.8515625 C49.39026719 22.40328324 55.40750354 26.71904485 61.4375 30.625 C62.613125 31.3984375 62.613125 31.3984375 63.8125 32.1875 C63.8125 32.8475 63.8125 33.5075 63.8125 34.1875 C63.1525 34.1875 62.4925 34.1875 61.8125 34.1875 C61.8125 34.8475 61.8125 35.5075 61.8125 36.1875 C51.55056951 34.3887796 42.92478564 29.27063409 33.91162109 24.32421875 C31.2422215 22.87868206 28.53879692 21.52211234 25.8125 20.1875 C25.8125 23.4875 25.8125 26.7875 25.8125 30.1875 C25.10609375 30.1153125 24.3996875 30.043125 23.671875 29.96875 C8.05201662 28.55589849 -7.56878084 28.9659242 -23.1875 30.1875 C-23.1875 30.8475 -23.1875 31.5075 -23.1875 32.1875 C-24.13109375 32.47882813 -25.0746875 32.77015625 -26.046875 33.0703125 C-33.62759123 35.47059162 -40.66447775 38.1779113 -47.69921875 41.953125 C-50.1875 43.1875 -50.1875 43.1875 -52.26953125 43.609375 C-54.97669698 44.42538422 -56.23396448 46.17498982 -58.1875 48.1875 C-59.87111109 49.26866878 -61.5818183 50.30840187 -63.3125 51.3125 C-87.44534815 66.54756064 -98.52678176 95.6632614 -104.875 122.1875 C-105.19017578 123.610625 -105.19017578 123.610625 -105.51171875 125.0625 C-105.73472656 125.76375 -105.95773437 126.465 -106.1875 127.1875 C-108.89850107 128.54300054 -111.4254614 128.63869044 -114.4375 129 C-133.36801182 131.69885097 -148.64308931 138.64308931 -162.1875 152.1875 C-162.94289063 152.86039063 -163.69828125 153.53328125 -164.4765625 154.2265625 C-171.37998349 160.56062918 -175.71713423 168.06303386 -180.1875 176.1875 C-180.85458984 177.37085938 -180.85458984 177.37085938 -181.53515625 178.578125 C-184.18727714 183.53950705 -185.72245369 188.7712682 -187.1875 194.1875 C-187.8475 194.1875 -188.5075 194.1875 -189.1875 194.1875 C-192.44680094 219.03966963 -190.18961422 244.16465064 -175.25 265.0625 C-173.9052305 266.7782404 -172.55122775 268.48678933 -171.1875 270.1875 C-170.56101562 271.06148438 -169.93453125 271.93546875 -169.2890625 272.8359375 C-164.48530272 279.36512936 -159.19185391 283.20441021 -152.1875 287.1875 C-151.1975 287.8475 -150.2075 288.5075 -149.1875 289.1875 C-149.1875 289.8475 -149.1875 290.5075 -149.1875 291.1875 C-148.630625 291.35765625 -148.07375 291.5278125 -147.5 291.703125 C-143.50805326 292.97083781 -139.72600521 294.32573812 -136 296.25 C-130.39635634 299.14006819 -125.30336602 300.4275713 -119.04296875 300.94140625 C-117.1875 301.1875 -117.1875 301.1875 -116.1875 302.1875 C-114.46570965 302.28752794 -112.73978113 302.31673809 -111.01508904 302.31892776 C-109.88676151 302.32276891 -108.75843399 302.32661005 -107.59591472 302.3305676 C-106.34061021 302.32970112 -105.08530571 302.32883463 -103.79196167 302.32794189 C-102.45710321 302.33052342 -101.12224552 302.33353597 -99.78738892 302.3369453 C-96.10169056 302.34504485 -92.41601164 302.34680652 -88.73030543 302.34754276 C-84.7613502 302.34938842 -80.79240518 302.3569337 -76.82345581 302.36367798 C-68.13270378 302.377287 -59.44195635 302.38329119 -50.75119543 302.38768864 C-45.32258474 302.39044908 -39.89397584 302.39468629 -34.46536636 302.39919281 C-19.43264058 302.41139327 -4.39991623 302.42168815 10.63281441 302.4250679 C11.59594712 302.42528747 12.55907984 302.42550703 13.55139839 302.42573325 C14.51685144 302.42595153 15.4823045 302.42616981 16.47701371 302.4263947 C18.43340627 302.42683817 20.38979884 302.42728473 22.34619141 302.42773438 C23.80185179 302.42806652 23.80185179 302.42806652 25.28691946 302.42840537 C40.9839367 302.43234667 56.68090732 302.44977676 72.37790658 302.4730939 C88.49763941 302.49684516 104.61734892 302.50927162 120.73709953 302.51043582 C129.78583998 302.51135094 138.83451985 302.51706119 147.88324356 302.53525543 C155.59579944 302.55070802 163.30827605 302.55574694 171.02084447 302.54751733 C174.95178668 302.54362779 178.88256953 302.54445639 182.81349182 302.55857468 C186.42265396 302.57141771 190.03153872 302.57002624 193.64070104 302.55798396 C195.54331431 302.55513618 197.44593285 302.56688398 199.34850705 302.57940602 C223.09222918 302.4450803 245.12500396 294.75409957 262.10546875 277.984375 C276.65808588 262.94877058 288.37381645 242.65374841 288.8125 221.1875 C288.83683105 220.51879883 288.86116211 219.85009766 288.88623047 219.16113281 C289.37939769 204.86847295 288.073977 191.97768695 282.6796875 178.5546875 C281.78534287 176.11336837 281.25853166 173.74535503 280.8125 171.1875 C280.1525 171.1875 279.4925 171.1875 278.8125 171.1875 C278.44125 170.1975 278.07 169.2075 277.6875 168.1875 C275.42126535 162.86347505 271.8901955 158.2651955 267.8125 154.1875 C267.8125 153.1975 267.8125 152.2075 267.8125 151.1875 C267.24402344 150.94644531 266.67554688 150.70539063 266.08984375 150.45703125 C263.36461092 148.93781912 261.54559661 147.11331019 259.375 144.875 C258.18583984 143.66457031 258.18583984 143.66457031 256.97265625 142.4296875 C255.40378402 140.80123785 253.85263978 139.15565027 252.3125 137.5 C247.2083337 132.77864617 241.60886677 128.93015815 234.8125 127.1875 C234.8125 126.5275 234.8125 125.8675 234.8125 125.1875 C231.12207322 123.59127104 227.55810946 122.62690756 223.625 121.8125 C219.41120768 120.88242872 215.57798466 119.78880343 211.625 118.0625 C206.7416652 115.96162362 202.0929675 115.41220074 196.8125 115.1875 C196.8125 114.1975 196.8125 113.2075 196.8125 112.1875 C195.1625 112.1875 193.5125 112.1875 191.8125 112.1875 C191.16492375 110.75078432 190.51950547 109.31309584 189.875 107.875 C189.51535156 107.07449219 189.15570312 106.27398437 188.78515625 105.44921875 C187.8125 103.1875 187.8125 103.1875 186.8125 100.1875 C188.34970703 100.13142578 188.34970703 100.13142578 189.91796875 100.07421875 C191.27868062 100.00852921 192.63935611 99.94208291 194 99.875 C194.67353516 99.85244141 195.34707031 99.82988281 196.04101562 99.80664062 C200.49224119 99.56779438 203.15892271 98.67438875 206.8125 96.1875 C211.43364291 93.60716639 214.98263818 94.51074718 219.875 95.8125 C220.62362305 96.00126709 221.37224609 96.19003418 222.14355469 96.38452148 C230.44755722 98.52448106 238.4590727 100.69575131 245.8125 105.1875 C247.79701771 105.89893088 249.79452112 106.57741336 251.8125 107.1875 C251.8125 107.8475 251.8125 108.5075 251.8125 109.1875 C252.54984375 109.46207031 253.2871875 109.73664063 254.046875 110.01953125 C276.35833687 119.44202715 294.39177168 142.41147921 303.8125 164.1875 C305.20134403 167.71887746 306.46916278 171.28149787 307.6875 174.875 C307.97391357 175.71748291 308.26032715 176.55996582 308.55541992 177.42797852 C312.05852978 188.30816362 313.18153694 198.97829918 313.125 210.375 C313.12008545 211.55682861 313.1151709 212.73865723 313.11010742 213.95629883 C312.87880761 231.3251351 309.73532144 249.9928403 300.8125 265.1875 C300.39484375 265.93773437 299.9771875 266.68796875 299.546875 267.4609375 C295.52821877 274.46046512 290.77610196 280.8340895 285.8125 287.1875 C285.30976562 287.8475 284.80703125 288.5075 284.2890625 289.1875 C279.88438098 294.68698675 274.3656765 298.90231153 268.8125 303.1875 C267.63880859 304.10208984 267.63880859 304.10208984 266.44140625 305.03515625 C247.50280921 319.05546671 225.2156143 325.51218129 201.84150696 325.45492554 C200.45748101 325.4586695 199.07345716 325.46327397 197.68943661 325.46865618 C193.91422585 325.48080948 190.1391042 325.48063485 186.36387837 325.47826743 C182.2812326 325.47785731 178.19861467 325.48891695 174.11598206 325.49838257 C166.12772374 325.51495133 158.13949496 325.52049024 150.1512209 325.52160732 C143.65371381 325.52255975 137.15621641 325.52667974 130.65871239 325.53300858 C112.21133816 325.55060967 93.76398715 325.55984921 75.31660447 325.55834763 C74.32339697 325.55826772 73.33018947 325.5581878 72.30688477 325.55810547 C71.31245569 325.55802371 70.31802661 325.55794195 69.29346331 325.55785771 C53.18388102 325.55704511 37.07439229 325.57617909 20.96483705 325.6043822 C4.3984231 325.63315482 -12.16794528 325.64692009 -28.73438483 325.64519465 C-38.02503242 325.64453226 -47.31558191 325.64995798 -56.60620689 325.67155075 C-64.5172391 325.68982026 -72.42812874 325.69406273 -80.33917298 325.6805319 C-84.36958676 325.67403126 -88.39972747 325.67377895 -92.43011475 325.6912384 C-122.99190464 325.815415 -122.99190464 325.815415 -136.1875 321.1875 C-138.27048293 320.56133316 -140.35376479 319.93615884 -142.4375 319.3125 C-168.87738778 310.0478493 -190.01743875 289.7813363 -202.81640625 265.08984375 C-215.7913552 237.62435353 -218.72849137 206.34107856 -208.9140625 177.30859375 C-207.05965469 172.27921498 -205.0145345 167.74177502 -202.1875 163.1875 C-201.6409375 162.23875 -201.094375 161.29 -200.53125 160.3125 C-188.44844141 139.8331634 -169.05258842 118.9002473 -145.23828125 112.67822266 C-142.41795352 112.00767801 -139.6039383 111.33907801 -136.75634766 110.79370117 C-131.79512697 109.73779481 -129.21123744 108.26181289 -126.1875 104.1875 C-124.8755423 101.00796616 -123.98841598 97.76325045 -123.125 94.4375 C-120.91512578 86.21701552 -118.01659803 78.78398789 -114.1875 71.1875 C-113.5275 71.1875 -112.8675 71.1875 -112.1875 71.1875 C-112.084375 70.46820313 -111.98125 69.74890625 -111.875 69.0078125 C-107.10610866 49.44451964 -82.67750147 29.55774081 -66.1875 19.1875 C-55.01409478 12.44959807 -43.7979393 7.48127146 -31.1875 4.1875 C-30.06085938 3.88199219 -28.93421875 3.57648438 -27.7734375 3.26171875 C-18.42974593 0.8156655 -9.6392148 0.00575476 0 0 Z " fill="#1BB4DE" transform="translate(612.1875,175.8125)"/>
<path d="M0 0 C12.87 0 25.74 0 39 0 C47 16 47 16 47 22 C47.66 22 48.32 22 49 22 C53.87486712 33.21412119 53.87486712 33.21412119 55.375 38.875 C56.78096378 43.88475601 59.0729277 48.36087412 61.44824219 52.96166992 C63.31633768 56.58916992 64.92254437 60.16251987 66.2578125 64.01171875 C67.21285682 66.57023223 68.35395353 69.02142021 69.5 71.5 C75 83.46374622 75 83.46374622 75 88 C75.66 88 76.32 88 77 88 C77.0825 87.34 77.165 86.68 77.25 86 C78.04476462 82.82094153 79.4000734 80.22002689 80.88134766 77.31396484 C83.25893279 72.39586098 85.12063726 67.25057897 87.08789062 62.15820312 C88.77573246 57.8520844 90.51278742 53.91880587 93 50 C93.74554068 48.08752608 94.4876749 46.17327122 95.18359375 44.2421875 C97.30195792 38.42428782 99.68711162 32.71149068 102.15625 27.03515625 C103.30932457 24.25389768 104.36785448 21.43934171 105.4375 18.625 C110.625 5.0625 110.625 5.0625 114 0 C126.54 0 139.08 0 152 0 C152 48.84 152 97.68 152 148 C142.1 148 132.2 148 122 148 C122 114.67 122 81.34 122 47 C121.34 47 120.68 47 120 47 C119.89300781 47.66386719 119.78601563 48.32773437 119.67578125 49.01171875 C118.83276084 52.73952575 117.54208983 56.24785566 116.1875 59.8125 C115.78265381 60.88697388 115.78265381 60.88697388 115.36962891 61.9831543 C113.77407657 66.15661305 112.03192222 70.14624646 109.92578125 74.08984375 C108.77625722 76.4616465 107.93107437 78.88693239 107.0625 81.375 C105.7636748 85.07283175 104.3053803 88.52174437 102.5 92 C100.71490314 95.43957689 99.27473736 98.84027016 98 102.5 C96.41391616 107.04634558 94.48587788 111.25636337 92.24609375 115.515625 C90.69313128 118.6118135 89.36446706 121.81624352 88 125 C80.08 125 72.16 125 64 125 C62.68 121.7 61.36 118.4 60 115 C58.50515515 112.05690381 58.50515515 112.05690381 56.99609375 109.12109375 C55.84481519 106.66954764 54.9553882 104.18174412 54.0625 101.625 C52.77799788 97.97219708 51.34722651 94.56059853 49.5625 91.125 C47.61261794 87.36791018 46.03644075 83.59330202 44.5625 79.625 C42.93388032 75.26499623 41.13352536 71.13609264 39 67 C31 51.45595855 31 51.45595855 31 46 C30.34 46 29.68 46 29 46 C29 79.99 29 113.98 29 149 C19.43 149 9.86 149 0 149 C0 99.83 0 50.66 0 0 Z " fill="#FAFBFC" transform="translate(663,306)"/>
<path d="M0 0 C11.22 0 22.44 0 34 0 C36.56734703 7.06020434 38.9088475 13.8310551 40.75 21.0625 C40.97042969 21.90232422 41.19085937 22.74214844 41.41796875 23.60742188 C43 29.71445555 43 29.71445555 43 32 C43.66 32 44.32 32 45 32 C45.17426514 32.52803223 45.34853027 33.05606445 45.52807617 33.60009766 C50.18836606 47.69847863 54.94751964 61.76204935 59.75 75.8125 C60.02967621 76.63188049 60.30935242 77.45126099 60.59750366 78.29547119 C63.12253841 85.69063213 65.65028592 93.08541977 68.265625 100.44921875 C68.55727539 101.27123779 68.84892578 102.09325684 69.14941406 102.94018555 C70.02333424 105.24639061 70.02333424 105.24639061 72 108 C74.31 101.4 76.62 94.8 79 88 C79.66 88 80.32 88 81 88 C81.0825 87.05125 81.165 86.1025 81.25 85.125 C81.82465657 81.18782591 83.18563644 77.86287812 84.71484375 74.20703125 C87.38628714 67.54060262 89.63935076 60.7136629 91.98632812 53.92773438 C93.04421156 50.87230612 94.10767018 47.81885687 95.171875 44.765625 C99.39024055 32.64273921 103.53870248 20.50122845 107.52514648 8.29980469 C107.99223022 6.88103027 107.99223022 6.88103027 108.46875 5.43359375 C108.74138672 4.59884521 109.01402344 3.76409668 109.29492188 2.90405273 C110 1 110 1 111 0 C113.44830426 -0.08843793 115.86820599 -0.11528752 118.31640625 -0.09765625 C119.41298805 -0.09553383 119.41298805 -0.09553383 120.53172302 -0.09336853 C122.87535632 -0.08775408 125.21889539 -0.07519922 127.5625 -0.0625 C129.14778508 -0.05748686 130.73307166 -0.05292363 132.31835938 -0.04882812 C136.2122761 -0.03777997 140.10612205 -0.02050572 144 0 C144 0.99 144 1.98 144 3 C143.34 3 142.68 3 142 3 C141.731875 4.11375 141.46375 5.2275 141.1875 6.375 C138.85246548 15.61784498 135.75625955 24.23539438 132 33 C130.48547099 36.53758601 129.50546408 39.92887978 128.6875 43.6875 C127.74084874 47.58713802 126.67805337 50.92275353 124.75 54.4375 C121.53116119 60.40839736 119.62674479 66.80531933 117.58691406 73.24975586 C115.97472681 78.29088378 114.12973533 83.06784901 111.92163086 87.8762207 C110.51860466 91.10931341 109.54138839 94.43181174 108.5625 97.8125 C106.82594101 103.58317791 104.78917677 109.0690882 102.38671875 114.6015625 C100.23890271 119.86522435 98.42134071 125.24064771 96.58642578 130.62011719 C94.56554821 136.51248422 92.32115262 142.19711845 90 148 C77.79 148 65.58 148 53 148 C48.56391343 136.10751259 44.28848306 124.17843208 40.19750977 112.16259766 C38.55230154 107.357745 36.87083204 102.5941122 34.953125 97.890625 C32.8681448 92.77397366 31.13815921 87.56734588 29.4375 82.3125 C27.52444824 76.40367274 25.4488767 70.71192539 23 65 C21.77441443 61.54000385 20.63612861 58.05274664 19.5 54.5625 C16.81074803 46.33620741 13.88448773 38.25549482 10.75 30.1875 C8.54219368 24.45258845 6.38421041 18.70019713 4.25 12.9375 C3.94416992 12.11596436 3.63833984 11.29442871 3.32324219 10.44799805 C3.03610352 9.66980713 2.74896484 8.89161621 2.453125 8.08984375 C2.19692383 7.39753662 1.94072266 6.70522949 1.67675781 5.99194336 C1.00956206 4.02814459 0.5030294 2.01211759 0 0 Z " fill="#F9FAFC" transform="translate(509,306)"/>
<path d="M0 0 C1.06025391 -0.01224609 2.12050781 -0.02449219 3.21289062 -0.03710938 C10.62017238 -0.05065102 17.54486582 0.82219113 24.8125 2.1875 C26.28712223 2.39648087 27.76232883 2.60141176 29.23828125 2.80078125 C39.62226731 4.66885512 39.62226731 4.66885512 43.03515625 9.0234375 C44.14295289 11.27045764 45.18984917 13.54846657 46.17578125 15.8515625 C49.39026719 22.40328324 55.40750354 26.71904485 61.4375 30.625 C62.613125 31.3984375 62.613125 31.3984375 63.8125 32.1875 C63.8125 32.8475 63.8125 33.5075 63.8125 34.1875 C63.1525 34.1875 62.4925 34.1875 61.8125 34.1875 C61.8125 34.8475 61.8125 35.5075 61.8125 36.1875 C51.55056951 34.3887796 42.92478564 29.27063409 33.91162109 24.32421875 C31.2422215 22.87868206 28.53879692 21.52211234 25.8125 20.1875 C25.8125 23.4875 25.8125 26.7875 25.8125 30.1875 C25.10609375 30.1153125 24.3996875 30.043125 23.671875 29.96875 C8.05201662 28.55589849 -7.56878084 28.9659242 -23.1875 30.1875 C-23.1875 30.8475 -23.1875 31.5075 -23.1875 32.1875 C-24.13109375 32.47882813 -25.0746875 32.77015625 -26.046875 33.0703125 C-33.62759123 35.47059162 -40.66447775 38.1779113 -47.69921875 41.953125 C-50.1875 43.1875 -50.1875 43.1875 -52.26953125 43.609375 C-54.97669698 44.42538422 -56.23396448 46.17498982 -58.1875 48.1875 C-59.87111109 49.26866878 -61.5818183 50.30840187 -63.3125 51.3125 C-87.44534815 66.54756064 -98.52678176 95.6632614 -104.875 122.1875 C-105.19017578 123.610625 -105.19017578 123.610625 -105.51171875 125.0625 C-105.73472656 125.76375 -105.95773437 126.465 -106.1875 127.1875 C-108.89850107 128.54300054 -111.4254614 128.63869044 -114.4375 129 C-125.47706845 130.54802546 -135.21392048 133.21820221 -144.85546875 138.87890625 C-147.1875 140.1875 -147.1875 140.1875 -150.5 141.25 C-154.14344119 142.52096786 -156.27444042 144.67167581 -159.1875 147.1875 C-159.8475 147.1875 -160.5075 147.1875 -161.1875 147.1875 C-161.1875 147.8475 -161.1875 148.5075 -161.1875 149.1875 C-163.5625 151.8125 -163.5625 151.8125 -166.1875 154.1875 C-166.8475 154.1875 -167.5075 154.1875 -168.1875 154.1875 C-168.44015625 154.74308594 -168.6928125 155.29867187 -168.953125 155.87109375 C-170.38225001 158.55296442 -172.09880259 160.83047376 -173.9375 163.25 C-177.91505936 168.63567344 -181.14630202 174.23182062 -184.1875 180.1875 C-186.45958206 179.0649654 -188.73017645 177.93958479 -191 176.8125 C-191.96389648 176.33683594 -191.96389648 176.33683594 -192.94726562 175.8515625 C-195.81944461 174.42291389 -198.5142821 172.96964527 -201.1875 171.1875 C-201.1875 170.5275 -201.1875 169.8675 -201.1875 169.1875 C-202.1775 169.1875 -203.1675 169.1875 -204.1875 169.1875 C-204.6825 171.1675 -204.6825 171.1675 -205.1875 173.1875 C-205.5175 172.5275 -205.8475 171.8675 -206.1875 171.1875 C-196.80244692 146.50072995 -175.16389875 126.3152826 -151.875 114.9375 C-149.04937936 113.73253328 -146.23725187 112.93268671 -143.25390625 112.23828125 C-142.54468018 112.07295898 -141.8354541 111.90763672 -141.10473633 111.73730469 C-139.69351315 111.41999011 -138.27789681 111.1214405 -136.8581543 110.84472656 C-131.86733718 109.7596338 -129.22883965 108.29465425 -126.1875 104.1875 C-124.8760337 101.00775793 -123.98842012 97.76326638 -123.125 94.4375 C-120.91512578 86.21701552 -118.01659803 78.78398789 -114.1875 71.1875 C-113.5275 71.1875 -112.8675 71.1875 -112.1875 71.1875 C-112.084375 70.46820313 -111.98125 69.74890625 -111.875 69.0078125 C-107.10610866 49.44451964 -82.67750147 29.55774081 -66.1875 19.1875 C-55.01409478 12.44959807 -43.7979393 7.48127146 -31.1875 4.1875 C-30.06085938 3.88199219 -28.93421875 3.57648438 -27.7734375 3.26171875 C-18.42974593 0.8156655 -9.6392148 0.00575476 0 0 Z " fill="#24AEF3" transform="translate(612.1875,175.8125)"/>
<path d="M0 0 C5.01693365 -0.30873438 8.69319924 0.73328273 13.375 2.5 C14.01566406 2.73847656 14.65632812 2.97695312 15.31640625 3.22265625 C16.88087465 3.80641312 18.44092137 4.40199724 20 5 C20 5.66 20 6.32 20 7 C20.70125 7.185625 21.4025 7.37125 22.125 7.5625 C28.43952527 10.71976263 31.96317251 16.64141608 34.3046875 23.14453125 C36.90609308 33.82783171 34.58212545 43.85655566 31 54 C30.66097656 54.96164063 30.32195313 55.92328125 29.97265625 56.9140625 C21.62720053 78.47563136 7.64982682 98.77873334 -5 118 C-5.50039795 118.7643335 -6.0007959 119.52866699 -6.51635742 120.31616211 C-7.00595947 120.87182861 -7.49556152 121.42749512 -8 122 C-8.99 122 -9.98 122 -11 122 C-13.51106491 81.79290884 -13.51106491 81.79290884 -13 63 C-12.97099609 61.8241333 -12.97099609 61.8241333 -12.94140625 60.62451172 C-12.34125205 39.69413394 -9.45148491 18.90296982 0 0 Z " fill="#F15959" transform="translate(762,111)"/>
<path d="M0 0 C0.76144602 1.41054755 1.50822502 2.82900938 2.25 4.25 C2.66765625 5.03890625 3.0853125 5.8278125 3.515625 6.640625 C7.72331484 16.16329147 9.84572948 25.58243123 11.1875 35.875 C11.35185547 37.03902344 11.51621094 38.20304687 11.68554688 39.40234375 C15.46967642 67.07091844 14.45321707 94.38957028 11 122 C10.34 122 9.68 122 9 122 C7.78588867 120.51318359 7.78588867 120.51318359 6.41796875 118.3984375 C5.90451904 117.60904785 5.39106934 116.8196582 4.86206055 116.00634766 C4.30945557 115.13800293 3.75685059 114.2696582 3.1875 113.375 C2.61362549 112.48216309 2.03975098 111.58932617 1.44848633 110.66943359 C-4.46425416 101.39881066 -10.06518812 91.94919978 -15.58105469 82.43847656 C-16.8359037 80.28200169 -18.10530461 78.13528112 -19.3828125 75.9921875 C-23.95537696 68.26387989 -27.74964921 60.37395671 -31 52 C-31.34160156 51.15050781 -31.68320312 50.30101562 -32.03515625 49.42578125 C-35.43618554 39.85544302 -35.37125876 28.23067583 -32.2890625 18.56640625 C-28.14709687 10.32012923 -20.86420323 5.29370917 -12.54296875 1.83984375 C-8.28597118 0.43392289 -4.48274753 -0.1280785 0 0 Z " fill="#F05051" transform="translate(729,111)"/>
<path d="M0 0 C3.42937457 1.41599982 4.91866404 2.91551854 6.9375 6 C9.20004615 9.37448122 11.4981994 12.70092314 13.921875 15.9609375 C20.3867677 24.67923957 26.33732327 33.52627819 31.77807617 42.92333984 C34.18386414 47.06285529 36.68804504 51.03030986 39.48046875 54.921875 C43.07767294 59.98271498 46.03508918 65.26842344 48.9375 70.75 C49.97127414 72.68042828 51.00643245 74.61011595 52.04296875 76.5390625 C52.54231934 77.46879883 53.04166992 78.39853516 53.55615234 79.35644531 C56.13791514 84.08341988 58.89609516 88.70529643 61.671875 93.3203125 C63 96 63 96 63 100 C58.23034282 98.80168266 54.65116855 97.41024679 50.5 94.6875 C44.36226957 90.75451307 38.05079537 87.1791143 31.6875 83.625 C-9.77382215 60.33385798 -9.77382215 60.33385798 -16.078125 42.46484375 C-18.84987385 32.04729618 -17.11324471 23.35415109 -12 14 C-8.65483447 8.68181458 -4.53493396 4.31898472 0 0 Z " fill="#ED3535" transform="translate(669,140)"/>
<path d="M0 0 C4.13304044 1.34647833 6.30793614 3.02592549 9.125 6.3125 C9.78757812 7.07175781 10.45015625 7.83101562 11.1328125 8.61328125 C17.38033156 16.59912674 20.8415849 25.76501811 20.4453125 35.94921875 C18.59422034 48.63082378 11.24154243 56.68727325 1.47998047 64.18676758 C-2.48075574 67.0826514 -6.61970358 69.64394981 -10.8125 72.1875 C-11.71758301 72.74211914 -12.62266602 73.29673828 -13.55517578 73.86816406 C-21.44104571 78.68966179 -29.36104742 83.45529781 -37.30078125 88.1875 C-40.37411357 90.02051644 -43.43322662 91.8739423 -46.48046875 93.75 C-47.51905029 94.38566895 -47.51905029 94.38566895 -48.57861328 95.03417969 C-49.86280377 95.82119281 -51.14395351 96.61319844 -52.42138672 97.41113281 C-55.19091975 99.1012053 -56.68886133 100 -60 100 C-59.4081657 95.70722856 -57.88612101 92.71444047 -55.6875 89 C-54.9616633 87.76205646 -54.23644352 86.52375107 -53.51171875 85.28515625 C-52.91302979 84.26832764 -52.91302979 84.26832764 -52.30224609 83.23095703 C-50.35548597 79.89584379 -48.45752711 76.53341258 -46.55297852 73.17407227 C-42.16119179 65.43511024 -37.70111815 57.76815075 -32.97314453 50.22924805 C-31.044546 47.07290398 -29.24043348 43.87048791 -27.4453125 40.63671875 C-23.19053907 33.09934397 -18.42101626 25.94783034 -13.53417969 18.80908203 C-12.10027944 16.71387852 -10.67462624 14.61323655 -9.25 12.51171875 C-8.33640082 11.16895548 -7.4223557 9.82649549 -6.5078125 8.484375 C-6.08388214 7.86052917 -5.65995178 7.23668335 -5.22317505 6.59393311 C-3.59592442 4.22067059 -2.03967715 2.03967715 0 0 Z " fill="#EE3533" transform="translate(820,140)"/>
<path d="M0 0 C4.62 0 9.24 0 14 0 C19.23295978 9.79370141 24.42681941 19.53167038 28.84375 29.7265625 C29.78872856 32.14207536 29.78872856 32.14207536 32 33 C32.10505859 32.30616211 32.21011719 31.61232422 32.31835938 30.89746094 C33.11033642 27.53099118 34.39648237 24.75235285 35.90625 21.640625 C36.19101196 21.0507782 36.47577393 20.4609314 36.76916504 19.85321045 C37.36832746 18.61486758 37.97022348 17.37784399 38.57470703 16.14208984 C39.50255433 14.24477676 40.42187208 12.34351412 41.33984375 10.44140625 C45.84082315 1.15917685 45.84082315 1.15917685 47 0 C51.95 0 56.9 0 62 0 C62 20.46 62 40.92 62 62 C57.71 62 53.42 62 49 62 C48.67 50.12 48.34 38.24 48 26 C45.42115617 30.29807305 43.11347061 34.58965854 40.875 39.0625 C40.51535156 39.76955078 40.15570313 40.47660156 39.78515625 41.20507812 C39.44097656 41.89150391 39.09679687 42.57792969 38.7421875 43.28515625 C38.4313623 43.90269775 38.12053711 44.52023926 37.80029297 45.15649414 C36.80759402 47.30539718 36.80759402 47.30539718 36 51 C32.37 51 28.74 51 25 51 C24.1028125 48.6796875 24.1028125 48.6796875 23.1875 46.3125 C22.08758702 43.5530692 21.02959758 41.0493293 19.5 38.5 C17.53231931 35.22053218 16.24459424 31.76800138 14.8671875 28.20703125 C14.0404557 26.00662743 14.0404557 26.00662743 13 24 C12.67 36.21 12.34 48.42 12 61 C8.04 61 4.08 61 0 61 C0 40.87 0 20.74 0 0 Z " fill="#3D5669" transform="translate(464,532)"/>
<path d="M0 0 C34.82585752 0 34.82585752 0 41.1875 4.8125 C41.84105469 5.29332031 42.49460937 5.77414062 43.16796875 6.26953125 C46.47288376 9.39123136 47.85064461 11.96609021 48.50390625 16.48828125 C48.69723456 29.10617546 48.69723456 29.10617546 43.66796875 34.61328125 C41.57973627 36.34939959 39.64700057 37.37717634 37 38 C40.38694095 44.4482145 44.25334406 50.42899871 48.42578125 56.3984375 C50 59 50 59 50 62 C45.05 62 40.1 62 35 62 C34.29875 60.55625 33.5975 59.1125 32.875 57.625 C32.41222656 56.72136719 31.94945312 55.81773437 31.47265625 54.88671875 C30.50567234 52.99122509 29.57446894 51.07696378 28.68359375 49.14453125 C28.23113281 48.25121094 27.77867187 47.35789062 27.3125 46.4375 C26.91675781 45.61121094 26.52101563 44.78492188 26.11328125 43.93359375 C23.23926909 40.91681648 23.23926909 40.91681648 14 41 C14 47.93 14 54.86 14 62 C9.38 62 4.76 62 0 62 C0 41.54 0 21.08 0 0 Z " fill="#3C566A" transform="translate(621,532)"/>
<path d="M0 0 C0.5536602 15.01034319 -0.695539 26.24796222 -11 38 C-21.50551402 48.77431182 -33.81954614 51.75388197 -48.4119873 52.04873657 C-54.87888418 52.12053151 -61.34542164 52.09148074 -67.8125 52.0625 C-69.77669156 52.05747317 -71.74088438 52.05291237 -73.70507812 52.04882812 C-78.47008351 52.03792035 -83.2350276 52.02072143 -88 52 C-87.26464844 48.20947266 -87.26464844 48.20947266 -84.8828125 46.32421875 C-83.97273437 45.78410156 -83.06265625 45.24398437 -82.125 44.6875 C-81.12726562 44.08292969 -80.12953125 43.47835937 -79.1015625 42.85546875 C-78.07804688 42.24316406 -77.05453125 41.63085938 -76 41 C-74.16275672 39.83950039 -72.32930662 38.67297038 -70.5 37.5 C-69.12521484 36.62794922 -69.12521484 36.62794922 -67.72265625 35.73828125 C-65.97349371 34.62152755 -64.23068461 33.49472421 -62.49609375 32.35546875 C-56.26428555 28.29290065 -49.8610393 24.63216037 -43.34008789 21.0612793 C-39.00843087 18.68602825 -34.71360508 16.26278932 -30.453125 13.76171875 C-29.52419434 13.21926514 -28.59526367 12.67681152 -27.63818359 12.11791992 C-25.83958541 11.06479126 -24.04537204 10.00412597 -22.25634766 8.93481445 C-17.19683276 5.98449527 -12.75847712 4.11711796 -7 3 C-7 2.34 -7 1.68 -7 1 C-4 0 -4 0 0 0 Z " fill="#EC3837" transform="translate(855,196)"/>
<path d="M0 0 C4.6146398 1.02012558 8.54447784 3.08064476 12.75 5.1875 C13.62398437 5.62529785 14.49796875 6.0630957 15.3984375 6.51416016 C25.54280088 11.6774268 35.32540306 17.44384982 45.09863281 23.27148438 C47.83892033 24.90403534 50.58628736 26.52390878 53.3359375 28.140625 C61.73717597 33.10130269 70.02946151 38.21016198 78.1875 43.5625 C78.96077637 44.06346191 79.73405273 44.56442383 80.53076172 45.08056641 C81.23604004 45.55026855 81.94131836 46.0199707 82.66796875 46.50390625 C83.28953857 46.91455322 83.9111084 47.3252002 84.55151367 47.74829102 C86 49 86 49 87 52 C80.13657779 52.27244464 73.27263601 52.50142965 66.40673828 52.7019043 C64.07698629 52.77486003 61.74751031 52.8573352 59.41845703 52.94995117 C34.64165465 53.92252836 34.64165465 53.92252836 23 48 C21.95183105 47.49057861 20.90366211 46.98115723 19.82373047 46.45629883 C9.99539963 41.38747699 4.1598318 31.51949838 0.64453125 21.2578125 C-0.73800849 14.26970252 -0.28062869 7.08587433 0 0 Z " fill="#EA3132" transform="translate(638,196)"/>
<path d="M0 0 C1.75763672 0.08701172 1.75763672 0.08701172 3.55078125 0.17578125 C4.73027344 0.22089844 5.90976562 0.26601563 7.125 0.3125 C8.48044922 0.39951172 8.48044922 0.39951172 9.86328125 0.48828125 C12.12421109 4.76789845 14.09281409 8.95736196 15.69140625 13.52734375 C17.87793952 19.62487794 20.34391853 25.58447226 22.86328125 31.55078125 C25.92887413 38.83853159 28.94916798 46.13857582 31.86328125 53.48828125 C32.23066406 54.32496338 32.59804688 55.16164551 32.9765625 56.02368164 C33.86328125 58.48828125 33.86328125 58.48828125 33.86328125 62.48828125 C29.57328125 62.48828125 25.28328125 62.48828125 20.86328125 62.48828125 C18.71564035 57.81949669 17.74039868 54.75098585 16.86328125 49.48828125 C3.49828125 49.98328125 3.49828125 49.98328125 -10.13671875 50.48828125 C-11.45671875 54.44828125 -12.77671875 58.40828125 -14.13671875 62.48828125 C-18.75671875 62.48828125 -23.37671875 62.48828125 -28.13671875 62.48828125 C-27.2778343 58.19385901 -26.16943398 54.754376 -24.5546875 50.71875 C-24.2992366 50.07891678 -24.04378571 49.43908356 -23.78059387 48.77986145 C-23.24050257 47.43012125 -22.69827978 46.08123224 -22.15405273 44.7331543 C-21.33190088 42.69482724 -20.5179948 40.65335314 -19.70507812 38.61132812 C-15.36164349 27.76150164 -15.36164349 27.76150164 -12.91015625 22.98828125 C-10.57878443 18.38715977 -9.02373581 13.63754182 -7.3828125 8.7578125 C-4.30012609 0.66938451 -4.30012609 0.66938451 0 0 Z " fill="#3E566A" transform="translate(571.13671875,531.51171875)"/>
<path d="M0 0 C14.19 0 28.38 0 43 0 C43 3.96 43 7.92 43 12 C33.43 12 23.86 12 14 12 C14 15.96 14 19.92 14 24 C22.25 24 30.5 24 39 24 C39 27.96 39 31.92 39 36 C30.42 36 21.84 36 13 36 C13 40.62 13 45.24 13 50 C23.23 50 33.46 50 44 50 C44 53.96 44 57.92 44 62 C29.48 62 14.96 62 0 62 C0 41.54 0 21.08 0 0 Z " fill="#435C6F" transform="translate(755,532)"/>
<path d="M0 0 C-1.2127814 3.45671993 -2.34641419 5.67217546 -5.0625 8.125 C-9.12788885 11.993952 -12.5763511 16.2699734 -16.08203125 20.64453125 C-18 23 -18 23 -20 25 C-20.00992354 30.37855737 -16.12084208 34.14228339 -12.9375 38.125 C-11.75310695 39.64130309 -10.56951307 41.15823075 -9.38671875 42.67578125 C-8.80841309 43.4126416 -8.23010742 44.14950195 -7.63427734 44.90869141 C-5.46663156 47.68252675 -3.34573974 50.48382396 -1.25 53.3125 C-0.63640625 54.13363281 -0.0228125 54.95476563 0.609375 55.80078125 C2 58 2 58 3 62 C-2.28 62 -7.56 62 -13 62 C-13.639375 60.7625 -14.27875 59.525 -14.9375 58.25 C-17.83414049 53.00608188 -21.37080913 48.33780459 -25.01171875 43.6015625 C-26.40355332 41.78041943 -27.72856646 39.90715031 -29 38 C-31.6905528 39.22007944 -31.6905528 39.22007944 -34 41 C-34.15686249 42.55948542 -34.25076639 44.12542668 -34.31640625 45.69140625 C-34.35830078 46.63564453 -34.40019531 47.57988281 -34.44335938 48.55273438 C-34.48267578 49.54595703 -34.52199219 50.53917969 -34.5625 51.5625 C-34.60568359 52.55958984 -34.64886719 53.55667969 -34.69335938 54.58398438 C-34.79980167 57.05581111 -34.90043759 59.5278866 -35 62 C-39.62 62 -44.24 62 -49 62 C-49 41.87 -49 21.74 -49 1 C-44.71 1 -40.42 1 -36 1 C-36 8.92 -36 16.84 -36 25 C-35.34 25 -34.68 25 -34 25 C-33.75507812 24.44570313 -33.51015625 23.89140625 -33.2578125 23.3203125 C-31.16680924 19.46299594 -28.24005132 16.30416635 -25.40625 12.97265625 C-22.97451198 10.09036897 -22.97451198 10.09036897 -21.15625 7.05859375 C-15.58221055 -1.53471707 -9.33591149 -1.09405213 0 0 Z " fill="#3C5569" transform="translate(737,532)"/>
<path d="M0 0 C0.88602402 0.00222061 1.77204803 0.00444122 2.68492126 0.00672913 C3.68588333 0.00680466 4.6868454 0.00688019 5.71813965 0.00695801 C6.80666733 0.01211929 7.89519501 0.01728058 9.01670837 0.02259827 C10.67928932 0.02472069 10.67928932 0.02472069 12.37545776 0.02688599 C15.93168281 0.03250418 19.48784596 0.04505977 23.04405212 0.05775452 C25.44834809 0.06276717 27.85264504 0.06733048 30.25694275 0.07142639 C36.1651699 0.08247953 42.0733505 0.09975635 47.98155212 0.12025452 C47.98155212 4.08025452 47.98155212 8.04025452 47.98155212 12.12025452 C41.71155212 12.12025452 35.44155212 12.12025452 28.98155212 12.12025452 C28.98155212 28.62025452 28.98155212 45.12025452 28.98155212 62.12025452 C24.69155212 62.12025452 20.40155212 62.12025452 15.98155212 62.12025452 C15.98155212 45.62025452 15.98155212 29.12025452 15.98155212 12.12025452 C9.71155212 12.12025452 3.44155212 12.12025452 -3.01844788 12.12025452 C-3.11610413 3.62416077 -3.11610413 3.62416077 -3.01844788 1.12025452 C-2.01844788 0.12025452 -2.01844788 0.12025452 0 0 Z " fill="#3F586C" transform="translate(815.0184478759766,531.8797454833984)"/>
<path d="M0 0 C4.13304044 1.34647833 6.30793614 3.02592549 9.125 6.3125 C9.78757812 7.07175781 10.45015625 7.83101562 11.1328125 8.61328125 C17.69674001 17.00357353 20.4752836 25.87844661 20.3359375 36.46875 C20 39 20 39 18 42 C17.67 36.39 17.34 30.78 17 25 C15.68 25.33 14.36 25.66 13 26 C13 26.66 13 27.32 13 28 C11.35546875 29.62109375 11.35546875 29.62109375 9.1875 31.4375 C6.2127406 33.93672395 6.2127406 33.93672395 3.4375 36.6484375 C1.28264197 38.67447249 -1.20230277 39.19177635 -4 40 C-4 40.66 -4 41.32 -4 42 C-4.99 42 -5.98 42 -7 42 C-7 42.66 -7 43.32 -7 44 C-25.14893617 54.34042553 -25.14893617 54.34042553 -35 55 C-28.14476184 40.28631809 -19.09040284 27.02456278 -10 13.625 C-9.61911224 13.06285797 -9.23822449 12.50071594 -8.84579468 11.92153931 C-7.75419241 10.31295674 -6.65842519 8.70720298 -5.5625 7.1015625 C-4.92441406 6.16650879 -4.28632812 5.23145508 -3.62890625 4.26806641 C-2 2 -2 2 0 0 Z " fill="#F25552" transform="translate(820,140)"/>
<path d="M0 0 C22.11 0 44.22 0 67 0 C65.10690921 3.78618157 64.61521416 4.59456336 61.359375 6.76953125 C60.25795166 7.50961426 60.25795166 7.50961426 59.13427734 8.26464844 C58.34746582 8.77543945 57.5606543 9.28623047 56.75 9.8125 C55.94385254 10.34004883 55.13770508 10.86759766 54.30712891 11.41113281 C33.86961475 24.58385978 33.86961475 24.58385978 21.5 22.375 C12.27864777 18.75232591 5.41290876 11.11936314 0 3 C0 2.01 0 1.02 0 0 Z " fill="#E63336" transform="translate(656,253)"/>
<path d="M0 0 C7.7921478 -0.02546982 15.58428477 -0.04291705 23.37646484 -0.05493164 C26.02425538 -0.05994333 28.67204318 -0.06675444 31.31982422 -0.07543945 C35.13770223 -0.08764403 38.95554346 -0.0932601 42.7734375 -0.09765625 C43.94675629 -0.10281754 45.12007507 -0.10797882 46.32894897 -0.11329651 C52.95066905 -0.1137429 59.42754269 0.17842828 66 1 C64.35906633 8.24706432 58.95574415 13.7959453 53 18 C45.98117786 22.35109909 39.13188021 22.97460737 31 22 C23.18081054 19.97233337 16.53706285 14.5328146 10 10 C9.01386719 9.3503125 8.02773438 8.700625 7.01171875 8.03125 C6.10035156 7.4228125 5.18898438 6.814375 4.25 6.1875 C3.43015625 5.64480469 2.6103125 5.10210937 1.765625 4.54296875 C1.18296875 4.03378906 0.6003125 3.52460938 0 3 C0 2.01 0 1.02 0 0 Z " fill="#E93432" transform="translate(769,253)"/>
<path d="M0 0 C17 0 17 0 23 4 C24.60111899 7.20223797 24.49827144 10.52538714 24 14 C22.125 17 22.125 17 20 19 C19.34 19 18.68 19 18 19 C19.41475442 22.43583216 20.77435511 25.62392518 22.6875 28.8125 C24 31 24 31 24 33 C22.68 33 21.36 33 20 33 C18.078125 30.6640625 18.078125 30.6640625 16.25 27.625 C15.63640625 26.62726562 15.0228125 25.62953125 14.390625 24.6015625 C13 22 13 22 13 20 C10.03 20 7.06 20 4 20 C4 24.62 4 29.24 4 34 C2.68 34 1.36 34 0 34 C0 22.78 0 11.56 0 0 Z " fill="#798B9B" transform="translate(619,622)"/>
<path d="M0 0 C1.32 0 2.64 0 4 0 C4 11.22 4 22.44 4 34 C1.31875 34.28875 -1.3625 34.5775 -4.125 34.875 C-4.95789551 34.98183105 -5.79079102 35.08866211 -6.64892578 35.19873047 C-9.80789382 35.45877437 -12.08774749 35.53696252 -14.86938477 33.8996582 C-17.72652158 31.32199159 -18.87491785 29.53432529 -19.76171875 25.74609375 C-19.53671167 15.71551515 -19.53671167 15.71551515 -16.5625 12.75 C-15.716875 12.1725 -14.87125 11.595 -14 11 C-13.67 10.67 -13.34 10.34 -13 10 C-6.87384744 9.59158983 -5.60922691 9.63446385 0 13 C0 8.71 0 4.42 0 0 Z " fill="#677A8B" transform="translate(809,621)"/>
<path d="M0 0 C12.54 0 25.08 0 38 0 C38 48.84 38 97.68 38 148 C28.1 148 18.2 148 8 148 C7.67 114.01 7.34 80.02 7 45 C7.66 45 8.32 45 9 45 C9 78.66 9 112.32 9 147 C17.91 147 26.82 147 36 147 C36 99.15 36 51.3 36 2 C29.4 2 22.8 2 16 2 C10.65384668 1.71101874 5.33364537 1.41715662 0 1 C0 0.67 0 0.34 0 0 Z " fill="#B4CDE9" transform="translate(777,306)"/>
<path d="M0 0 C3.39488422 2.05107588 4.80323081 3.70484621 7 7 C7.5467536 10.71792448 7.54976973 14.28225027 7 18 C4.625 21.0625 4.625 21.0625 2 23 C1.34 23.66 0.68 24.32 0 25 C-5.28750449 25.43340201 -8.75717264 25.51548553 -13 22 C-16.55347956 18.07891911 -16.63653649 13.75398005 -16.46484375 8.671875 C-15.84279606 5.09640759 -14.77460269 3.25457346 -11.98046875 0.96484375 C-8.0653341 -0.94252954 -4.20693507 -0.8357684 0 0 Z " fill="#607284" transform="translate(746,631)"/>
<path d="M0 0 C0.66 0 1.32 0 2 0 C4.73304417 5.973808 7.4121661 11.96172089 10 18 C10.83291423 19.79186154 11.66628716 21.5835099 12.5 23.375 C14.69550938 28.17062924 16.43217048 32.96644208 18 38 C9.585 38.495 9.585 38.495 1 39 C1 59.79 1 80.58 1 102 C0.67 102 0.34 102 0 102 C0 68.34 0 34.68 0 0 Z " fill="#3D7DCB" transform="translate(692,352)"/>
<path d="M0 0 C1.65 0 3.3 0 5 0 C6.67333158 3.12147545 8.33751716 6.24773498 10 9.375 C10.47695313 10.26445313 10.95390625 11.15390625 11.4453125 12.0703125 C11.89648438 12.92109375 12.34765625 13.771875 12.8125 14.6484375 C13.23144531 15.43395996 13.65039062 16.21948242 14.08203125 17.02880859 C15 19 15 19 15 21 C15.66 21 16.32 21 17 21 C17.36738281 19.75863281 17.36738281 19.75863281 17.7421875 18.4921875 C19.19193489 14.46711244 21.0723051 10.86772286 23.125 7.125 C23.49753906 6.43664062 23.87007812 5.74828125 24.25390625 5.0390625 C25.16499526 3.35705202 26.08190315 1.67819564 27 0 C28.32 0 29.64 0 31 0 C31 10.89 31 21.78 31 33 C30.01 33 29.02 33 28 33 C28 25.08 28 17.16 28 9 C27.34 9 26.68 9 26 9 C25.73445312 9.84820313 25.46890625 10.69640625 25.1953125 11.5703125 C23.95559534 15.12740946 22.47517384 18.46593399 20.875 21.875 C20.33617187 23.02742187 19.79734375 24.17984375 19.2421875 25.3671875 C18.83226562 26.23601563 18.42234375 27.10484375 18 28 C16.68 28 15.36 28 14 28 C13.01 25.03 12.02 22.06 11 19 C10.34 19 9.68 19 9 19 C7.68 16.03 6.36 13.06 5 10 C4.67 17.59 4.34 25.18 4 33 C2.68 33 1.36 33 0 33 C0 22.11 0 11.22 0 0 Z " fill="#596F83" transform="translate(515,622)"/>
<path d="M0 0 C2.51625 -0.103125 5.0325 -0.20625 7.625 -0.3125 C8.79603271 -0.38078003 8.79603271 -0.38078003 9.99072266 -0.45043945 C13.86479056 -0.52666191 16.35833539 -0.15936123 19.48046875 2.23828125 C22.80838773 5.88609321 22.80838773 5.88609321 22.6875 9.5 C22.69330078 10.59828125 22.69330078 10.59828125 22.69921875 11.71875 C21.60136659 15.30056934 19.992068 16.77343511 17 19 C14.02501247 19.58651515 11.20438608 19.47559833 8.1875 19.3125 C4.1346875 19.1578125 4.1346875 19.1578125 0 19 C0 12.73 0 6.46 0 0 Z " fill="#F2F4F5" transform="translate(634,543)"/>
<path d="M0 0 C7.26 0 14.52 0 22 0 C22 1.32 22 2.64 22 4 C16.39 4 10.78 4 5 4 C5 7.3 5 10.6 5 14 C9.95 14 14.9 14 20 14 C20 15.32 20 16.64 20 18 C14.72 18 9.44 18 4 18 C4 21.96 4 25.92 4 30 C10.27 30 16.54 30 23 30 C23 31.32 23 32.64 23 34 C19.35418313 34.02887512 15.70839537 34.04675585 12.0625 34.0625 C10.50112305 34.07506836 10.50112305 34.07506836 8.90820312 34.08789062 C7.91884766 34.09111328 6.92949219 34.09433594 5.91015625 34.09765625 C4.53549194 34.10551147 4.53549194 34.10551147 3.13305664 34.11352539 C1 34 1 34 0 33 C-0.08843793 30.55169574 -0.11528752 28.13179401 -0.09765625 25.68359375 C-0.0962413 24.95253922 -0.09482635 24.22148468 -0.09336853 23.46827698 C-0.08775408 21.12464368 -0.07519922 18.78110461 -0.0625 16.4375 C-0.05748686 14.85221492 -0.05292363 13.26692834 -0.04882812 11.68164062 C-0.03862921 7.78769457 -0.01905687 3.89395323 0 0 Z " fill="#617587" transform="translate(557,622)"/>
<path d="M0 0 C3.16056628 1.48207345 6.04592774 3.20980646 9.015625 5.046875 C20.06752892 11.80490157 31.44269336 18.00844804 42.765625 24.296875 C42.765625 27.40945069 42.59200876 29.40453185 41.765625 32.296875 C36.95051296 30.65108475 32.99743812 27.99048126 28.765625 25.234375 C20.00320683 19.60526048 11.0712289 14.29546879 2.078125 9.046875 C1.41772217 8.66135468 0.75731934 8.27583435 0.0769043 7.87863159 C-3.69098008 5.6803278 -7.46153906 3.48667284 -11.234375 1.296875 C-9.421875 0.671875 -9.421875 0.671875 -7.234375 0.296875 C-6.244375 0.956875 -5.254375 1.616875 -4.234375 2.296875 C-4.234375 1.636875 -4.234375 0.976875 -4.234375 0.296875 C-2.234375 -0.703125 -2.234375 -0.703125 0 0 Z " fill="#2A5F99" transform="translate(678.234375,209.703125)"/>
<path d="M0 0 C2.3671875 1.34375 2.3671875 1.34375 4 3 C4 3.99 4 4.98 4 6 C3.29359375 5.83757813 2.5871875 5.67515625 1.859375 5.5078125 C-1.07105895 4.98738024 -3.77647133 4.86696344 -6.75 4.875 C-7.71421875 4.87242187 -8.6784375 4.86984375 -9.671875 4.8671875 C-11.96050141 4.73860602 -11.96050141 4.73860602 -13 6 C-13.2500773 8.45809998 -13.2500773 8.45809998 -13 11 C-10.51998292 13.48001708 -8.53591872 13.87584176 -5.1875 14.875 C3.21551724 17.61884236 3.21551724 17.61884236 6 21 C6.73143483 24.8197152 6.34723419 26.43413688 4.3125 29.75 C0.63181719 33.33120489 -2.41027515 34.11006142 -7.4375 34.3125 C-11.58138489 34.23627469 -14.43524708 33.19369411 -18 31 C-18 29.68 -18 28.36 -18 27 C-17.30390625 27.32613281 -16.6078125 27.65226563 -15.890625 27.98828125 C-12.66228459 29.11820039 -10.15974106 29.23369107 -6.75 29.1875 C-5.69296875 29.18105469 -4.6359375 29.17460938 -3.546875 29.16796875 C-1.06561282 29.28529306 -1.06561282 29.28529306 0 28 C0.04080783 26.00041636 0.04254356 23.99954746 0 22 C-0.79664063 21.76925781 -1.59328125 21.53851562 -2.4140625 21.30078125 C-14.16851441 17.68292683 -14.16851441 17.68292683 -18 13 C-18.84564156 10.11072465 -18.83894072 7.88968469 -18 5 C-13.42126093 -1.10498542 -7.24743295 -1.21127013 0 0 Z " fill="#5C7084" transform="translate(605,622)"/>
<path d="M0 0 C3.1875 1.5 3.1875 1.5 5 3 C4.67 3.99 4.34 4.98 4 6 C3.45730469 5.83757813 2.91460938 5.67515625 2.35546875 5.5078125 C-0.37913061 4.91826372 -2.89143462 4.86753387 -5.6875 4.875 C-6.66074219 4.87242187 -7.63398437 4.86984375 -8.63671875 4.8671875 C-10.95637611 4.73427038 -10.95637611 4.73427038 -12 6 C-12.04080783 7.99958364 -12.04254356 10.00045254 -12 12 C-11.34773437 12.25394531 -10.69546875 12.50789062 -10.0234375 12.76953125 C2.83211679 17.83211679 2.83211679 17.83211679 6 21 C6.47458497 25.19216724 6.45614786 27.30057329 4.125 30.875 C0.7078886 34.2921114 -1.56369431 34.21031732 -6.3125 34.3125 C-7.44300781 34.34988281 -8.57351563 34.38726563 -9.73828125 34.42578125 C-13.6535801 33.91468236 -15.28620113 32.82581308 -18 30 C-18 29.01 -18 28.02 -18 27 C-17.01 27 -16.02 27 -15 27 C-15 27.66 -15 28.32 -15 29 C-12.70839681 29.02692484 -10.41670454 29.04636124 -8.125 29.0625 C-6.21074219 29.07990234 -6.21074219 29.07990234 -4.2578125 29.09765625 C-1.11335348 29.23176569 -1.11335348 29.23176569 1 28 C1.33425735 25.62625139 1.33425735 25.62625139 1 23 C-1.78695283 20.41759417 -4.35151155 19.45793695 -8 18.5625 C-14.8741576 16.5752804 -14.8741576 16.5752804 -17 13 C-17.51829966 9.73471214 -17.77228425 8.07089406 -17 5 C-12.44277578 -0.91207466 -7.12517044 -1.03953854 0 0 Z " fill="#5F7487" transform="translate(668,622)"/>
<path d="M0 0 C2.69381489 1.02521887 3.84696756 1.96028506 6 4 C6.875 6.25 6.875 6.25 7 8 C3.62537285 7.45276317 1.91765 6.9451 -1 5 C-5.44448783 4.67077868 -9.11990689 4.67194413 -13 7 C-15.58285913 12.19290626 -15.70860866 17.3140558 -15 23 C-12.90219061 26.61691275 -11.95125774 27.68291409 -8 29 C-2.52324443 29.52059841 -2.52324443 29.52059841 2.3125 27.5 C2.869375 27.005 3.42625 26.51 4 26 C4.99 26 5.98 26 7 26 C6.62118922 28.74637817 6.22167713 29.80049058 4.125 31.6875 C-0.30981737 34.42665191 -4.92902894 34.89289524 -10 34 C-14.58256614 31.38389903 -17.67392819 27.70671423 -20 23 C-20.8086749 17.17899782 -20.84476646 11.78339586 -18.3125 6.4375 C-17.549375 5.633125 -16.78625 4.82875 -16 4 C-14.9790625 2.824375 -14.9790625 2.824375 -13.9375 1.625 C-9.39563366 -0.88752181 -5.07073782 -0.74242135 0 0 Z " fill="#596E82" transform="translate(701,622)"/>
<path d="M0 0 C2.875 1.375 2.875 1.375 5 4 C5.7703109 8.37478455 5.91718633 12.32613494 3.75 16.28125 C2 18 2 18 -0.15625 18.53125 C-0.9296875 18.5209375 -1.703125 18.510625 -2.5 18.5 C-3.2734375 18.5103125 -4.046875 18.520625 -4.84375 18.53125 C-7 18 -7 18 -8.75390625 16.28125 C-10.91214648 12.33011428 -10.64658098 8.37350282 -10 4 C-7.38693235 -0.22110928 -4.80449184 -0.78440683 0 0 Z " fill="#F6F7F7" transform="translate(804,634)"/>
<path d="M0 0 C3.02883418 2.04117086 4.70071921 3.53742777 5.44921875 7.1953125 C5.62771901 10.92535251 5.40341332 13.31083558 3.5 16.5625 C-0.29583264 18.74510377 -2.64496146 18.55302077 -7 18 C-9.8392689 15.1607311 -10.43146597 12.95832513 -10.4375 9 C-10.3241382 5.65829137 -10.16423011 4.2652948 -8.375 1.375 C-5.22568648 -0.44828677 -3.58638897 -0.6587245 0 0 Z " fill="#F6F7F7" transform="translate(744,634)"/>
<path d="M0 0 C5.92648574 -0.07409532 11.85270253 -0.12857616 17.77954102 -0.16479492 C19.79619034 -0.17989179 21.81280679 -0.20037115 23.8293457 -0.22631836 C26.72615671 -0.26266211 29.62253406 -0.2797172 32.51953125 -0.29296875 C33.42274612 -0.30845261 34.325961 -0.32393646 35.25654602 -0.33988953 C36.5175135 -0.34022942 36.5175135 -0.34022942 37.80395508 -0.34057617 C38.54341873 -0.34723801 39.28288239 -0.35389984 40.04475403 -0.36076355 C42.55676732 0.10272946 43.45744635 1.00135691 45 3 C45 3.66 45 4.32 45 5 C30.81 5 16.62 5 2 5 C1.67 5.66 1.34 6.32 1 7 C0.67 4.69 0.34 2.38 0 0 Z " fill="#2D6E9F" transform="translate(767,248)"/>
<path d="M0 0 C0.99 0 1.98 0 3 0 C3.04898438 1.20398438 3.09796875 2.40796875 3.1484375 3.6484375 C3.22346343 5.22398198 3.29901133 6.79950166 3.375 8.375 C3.4059375 9.1690625 3.436875 9.963125 3.46875 10.78125 C3.51816421 15.36667375 3.51816421 15.36667375 6 19 C7.90821061 19.35513379 7.90821061 19.35513379 10 19.3125 C11.051875 19.33763672 11.051875 19.33763672 12.125 19.36328125 C12.74375 19.24339844 13.3625 19.12351562 14 19 C16.48044315 15.27933528 16.44381173 12.13459526 16.625 7.8125 C16.66367187 7.06291016 16.70234375 6.31332031 16.7421875 5.54101562 C16.83628216 3.69440801 16.91922319 1.8472381 17 0 C18.32 0 19.64 0 21 0 C21.33 7.92 21.66 15.84 22 24 C20.68 24 19.36 24 18 24 C18 23.01 18 22.02 18 21 C17.175 21.495 16.35 21.99 15.5 22.5 C11.07187141 24.39776939 8.77908234 24.61665579 4 24 C1.48956252 21.83750035 0.16334929 20.13686038 -0.31494141 16.80810547 C-0.39368915 14.2561706 -0.34892461 11.73861362 -0.25 9.1875 C-0.23195313 8.30384766 -0.21390625 7.42019531 -0.1953125 6.50976562 C-0.14838513 4.33937457 -0.07664731 2.16954481 0 0 Z " fill="#7C8C9A" transform="translate(761,632)"/>
<path d="M0 0 C2.8037963 2.38205536 3.63435426 4.4105462 4.5625 7.9375 C5.23897194 10.47140336 5.83516399 12.69691443 7.08984375 15.00390625 C8 17 8 17 8 22 C2.72 22 -2.56 22 -8 22 C-6.87420428 15.24522565 -6.87420428 15.24522565 -5.625 12.16796875 C-5.23054687 11.18860352 -5.23054687 11.18860352 -4.828125 10.18945312 C-4.55484375 9.52880859 -4.2815625 8.86816406 -4 8.1875 C-3.72671875 7.50751953 -3.4534375 6.82753906 -3.171875 6.12695312 C-1.14553571 1.14553571 -1.14553571 1.14553571 0 0 Z " fill="#EAEEEF" transform="translate(574,548)"/>
<path d="M0 0 C1.65 0 3.3 0 5 0 C6.36396462 2.45334555 7.71634169 4.91191234 9.0625 7.375 C9.45244141 8.07367187 9.84238281 8.77234375 10.24414062 9.4921875 C11.22415178 11.29610184 12.11875071 13.14583482 13 15 C12.67 15.66 12.34 16.32 12 17 C11.34 16.67 10.68 16.34 10 16 C9.67 16.99 9.34 17.98 9 19 C7.68 16.03 6.36 13.06 5 10 C4.67 17.59 4.34 25.18 4 33 C2.68 33 1.36 33 0 33 C0 22.11 0 11.22 0 0 Z " fill="#6C7E90" transform="translate(515,622)"/>
<path d="M0 0 C12.47157424 -0.3704428 12.47157424 -0.3704428 14.89453125 1.328125 C16.62939405 3.9518751 16.37508937 5.93677012 16 9 C14.89453125 11.17578125 14.89453125 11.17578125 13 13 C8.61723375 13.54579904 4.43192924 13.17552195 0 13 C0 8.71 0 4.42 0 0 Z " fill="#F7F8F8" transform="translate(623,626)"/>
<path d="M0 0 C2.64 0.99 5.28 1.98 8 3 C8.99862699 10.36487404 9.10331031 17.57313685 9 25 C5.7 24.01 2.4 23.02 -1 22 C-0.67 14.74 -0.34 7.48 0 0 Z " fill="#27A4D4" transform="translate(742,204)"/>
<path d="M0 0 C-1.875 3.875 -1.875 3.875 -3 5 C-2.01 5.33 -1.02 5.66 0 6 C0 5.34 0 4.68 0 4 C1.32 4.33 2.64 4.66 4 5 C3.51233154 5.26627197 3.02466309 5.53254395 2.5222168 5.80688477 C-6.84144298 10.93147868 -16.10671941 16.08420542 -25 22 C-26.32 21.01 -27.64 20.02 -29 19 C-27.52551551 15.16872773 -25.61392876 13.84986329 -22.09765625 11.8359375 C-21.12505859 11.27132812 -20.15246094 10.70671875 -19.15039062 10.125 C-18.13138672 9.5475 -17.11238281 8.97 -16.0625 8.375 C-14.05313282 7.21658387 -12.0440075 6.05774808 -10.03515625 4.8984375 C-8.69529663 4.13539307 -8.69529663 4.13539307 -7.32836914 3.35693359 C-1.56819 0 -1.56819 0 0 0 Z " fill="#EFEAEA" transform="translate(813,210)"/>
<path d="M0 0 C12 0 12 0 16 2 C11.71 2 7.42 2 3 2 C3 6.95 3 11.9 3 17 C6.96 17 10.92 17 15 17 C15.4125 18.0725 15.825 19.145 16.25 20.25 C17.64904231 23.5610668 19.41075213 25.49706039 22 28 C22.75 30.25 22.75 30.25 23 32 C21.68 32 20.36 32 19 32 C17.078125 29.6640625 17.078125 29.6640625 15.25 26.625 C14.63640625 25.62726562 14.0228125 24.62953125 13.390625 23.6015625 C12 21 12 21 12 19 C9.03 19.33 6.06 19.66 3 20 C2.67 23.96 2.34 27.92 2 32 C1.34 32 0.68 32 0 32 C0 21.44 0 10.88 0 0 Z " fill="#53697D" transform="translate(620,623)"/>
<path d="M0 0 C2.609375 -0.60546875 2.609375 -0.60546875 6 0 C8.58911858 2.92589508 10.37101559 6.27652955 12.25 9.6875 C12.77851562 10.59951172 13.30703125 11.51152344 13.8515625 12.45117188 C16.20506405 16.55785288 18.31213171 20.57106905 20 25 C18.02 25.33 16.04 25.66 14 26 C10.541907 20.64553343 7.33371831 15.16659938 4.1875 9.625 C3.77830322 8.91085938 3.36910645 8.19671875 2.94750977 7.4609375 C0 2.23532492 0 2.23532492 0 0 Z " fill="#309ACA" transform="translate(711,198)"/>
<path d="M0 0 C0.66 0.33 1.32 0.66 2 1 C2 1.66 2 2.32 2 3 C3.32 3 4.64 3 6 3 C4.60275546 6.66610354 2.98055794 10.1061628 1.125 13.5625 C0.38636719 14.95662109 0.38636719 14.95662109 -0.3671875 16.37890625 C-1.99627164 18.994015 -3.7398589 20.92086587 -6 23 C-6.66 21.68 -7.32 20.36 -8 19 C-8.66 19 -9.32 19 -10 19 C-9.47868283 14.04274768 -7.14796788 10.71792007 -4.4375 6.6875 C-4.01275391 6.04232422 -3.58800781 5.39714844 -3.15039062 4.73242188 C-2.10733607 3.15026046 -1.05462128 1.57447499 0 0 Z " fill="#2D8FBA" transform="translate(766,213)"/>
<path d="M0 0 C0.66 0 1.32 0 2 0 C0.27730925 4.93181753 -2.38911496 9.22933739 -5.0625 13.6875 C-5.97054512 15.21194601 -6.8781199 16.73667231 -7.78515625 18.26171875 C-8.18613525 18.93162842 -8.58711426 19.60153809 -9.00024414 20.29174805 C-9.70959602 21.50379568 -10.37194912 22.74389823 -11 24 C-12.65 24 -14.3 24 -16 24 C-16.80078125 22.01171875 -16.80078125 22.01171875 -17 19 C-15.71538769 16.06407003 -13.96552235 13.47111258 -12.1875 10.8125 C-11.72279297 10.08869141 -11.25808594 9.36488281 -10.77929688 8.61914062 C-8.98302241 5.84870296 -7.34089159 3.34089159 -5 1 C-4.67 1.99 -4.34 2.98 -4 4 C-2.68 3.67 -1.36 3.34 0 3 C0 2.01 0 1.02 0 0 Z " fill="#F4E6E5" transform="translate(784,192)"/>
<path d="M0 0 C1.32 0 2.64 0 4 0 C4.33 10.23 4.66 20.46 5 31 C6.32 31.33 7.64 31.66 9 32 C8.67 32.99 8.34 33.98 8 35 C5.125 35.1875 5.125 35.1875 2 35 C-0.39629455 31.40555817 -0.25781331 28.85138348 -0.1953125 24.70703125 C-0.1924826 24.00100266 -0.18965271 23.29497406 -0.18673706 22.56755066 C-0.17555464 20.31569367 -0.1504542 18.06423648 -0.125 15.8125 C-0.11496767 14.28451096 -0.10584226 12.75651567 -0.09765625 11.22851562 C-0.07562172 7.48552337 -0.04110567 3.74282944 0 0 Z " fill="#657788" transform="translate(716,621)"/>
<path d="M0 0 C0.66 0 1.32 0 2 0 C2.05394705 2.60444348 2.09364469 5.20776998 2.125 7.8125 C2.14175781 8.55048828 2.15851562 9.28847656 2.17578125 10.04882812 C2.21074628 13.91246426 2.19397555 15.70903668 0 19 C-2 17 -4 15 -6 13 C-8.87306228 12.49904977 -8.87306228 12.49904977 -12 13 C-14.78005834 15.25410136 -15.82497181 17.03660956 -16.46484375 20.55859375 C-16.72197293 23.04182762 -16.90313654 25.50576581 -17 28 C-17.99 28 -18.98 28 -20 28 C-20.76567413 16.37876826 -20.76567413 16.37876826 -18.921875 13.05859375 C-17.5625 11.75 -17.5625 11.75 -15 10 C-14.67 9.67 -14.34 9.34 -14 9 C-7.74821436 8.47018766 -4.8906154 9.08750768 0 13 C0 8.71 0 4.42 0 0 Z " fill="#5B6E81" transform="translate(810,622)"/>
<path d="M0 0 C7.26 0 14.52 0 22 0 C22 0.33 22 0.66 22 1 C15.07 1 8.14 1 1 1 C1.165 3.701875 1.33 6.40375 1.5 9.1875 C1.94371756 16.80430426 2.12134022 24.36904854 2 32 C2.66 31.34 3.32 30.68 4 30 C5.97119141 29.77294922 5.97119141 29.77294922 8.3515625 29.8046875 C9.20234375 29.81113281 10.053125 29.81757812 10.9296875 29.82421875 C12.26386719 29.84935547 12.26386719 29.84935547 13.625 29.875 C14.97078125 29.88853516 14.97078125 29.88853516 16.34375 29.90234375 C18.56276586 29.9259503 20.78125077 29.9588769 23 30 C23 31.32 23 32.64 23 34 C19.35418313 34.02887512 15.70839537 34.04675585 12.0625 34.0625 C10.50112305 34.07506836 10.50112305 34.07506836 8.90820312 34.08789062 C7.91884766 34.09111328 6.92949219 34.09433594 5.91015625 34.09765625 C4.53549194 34.10551147 4.53549194 34.10551147 3.13305664 34.11352539 C1 34 1 34 0 33 C-0.08843793 30.55169574 -0.11528752 28.13179401 -0.09765625 25.68359375 C-0.0962413 24.95253922 -0.09482635 24.22148468 -0.09336853 23.46827698 C-0.08775408 21.12464368 -0.07519922 18.78110461 -0.0625 16.4375 C-0.05748686 14.85221492 -0.05292363 13.26692834 -0.04882812 11.68164062 C-0.03862921 7.78769457 -0.01905687 3.89395323 0 0 Z " fill="#8D9AA7" transform="translate(557,622)"/>
<path d="M0 0 C0.33 0.66 0.66 1.32 1 2 C3.01669827 3.13350534 3.01669827 3.13350534 5 4 C2.0774094 7.12986652 -0.9385794 9.41453756 -4.5625 11.6875 C-5.51253906 12.28949219 -6.46257813 12.89148438 -7.44140625 13.51171875 C-10 15 -10 15 -13 16 C-12.773125 15.401875 -12.54625 14.80375 -12.3125 14.1875 C-12.209375 13.465625 -12.10625 12.74375 -12 12 C-12.99 11.01 -13.98 10.02 -15 9 C-10.05 6.03 -5.1 3.06 0 0 Z " fill="#2D8FBB" transform="translate(783,227)"/>
<path d="M0 0 C2.66258092 1.24383342 5.04058895 2.62632351 7.48828125 4.25 C8.27847656 4.765625 9.06867187 5.28125 9.8828125 5.8125 C10.47449219 6.286875 11.06617188 6.76125 11.67578125 7.25 C11.67578125 7.91 11.67578125 8.57 11.67578125 9.25 C6.08389205 10.712268 3.32830755 10.03875531 -1.62695312 7.13867188 C-2.33142578 6.70103516 -3.03589844 6.26339844 -3.76171875 5.8125 C-4.49326172 5.37873047 -5.22480469 4.94496094 -5.97851562 4.49804688 C-7.77053923 3.43220277 -9.54884707 2.34335615 -11.32421875 1.25 C-9.51171875 0.625 -9.51171875 0.625 -7.32421875 0.25 C-6.33421875 0.91 -5.34421875 1.57 -4.32421875 2.25 C-4.32421875 1.59 -4.32421875 0.93 -4.32421875 0.25 C-2.32421875 -0.75 -2.32421875 -0.75 0 0 Z " fill="#3291B8" transform="translate(678.32421875,209.75)"/>
<path d="M0 0 C4.10393012 -0.11591764 8.20744106 -0.18715601 12.3125 -0.25 C13.47974609 -0.28351563 14.64699219 -0.31703125 15.84960938 -0.3515625 C17.52700195 -0.37089844 17.52700195 -0.37089844 19.23828125 -0.390625 C20.26993408 -0.41157227 21.30158691 -0.43251953 22.36450195 -0.45410156 C25 0 25 0 28 4 C19.42 4 10.84 4 2 4 C1.34 2.68 0.68 1.36 0 0 Z " fill="#1E9EC7" transform="translate(784,248)"/>
<path d="M0 0 C0.99 0 1.98 0 3 0 C3.07347656 1.77117188 3.07347656 1.77117188 3.1484375 3.578125 C3.22348879 5.13543937 3.29903561 6.69272991 3.375 8.25 C3.4059375 9.02730469 3.436875 9.80460938 3.46875 10.60546875 C3.72658242 16.07379907 3.72658242 16.07379907 6 21 C8.64 21 11.28 21 14 21 C14 21.66 14 22.32 14 23 C10.86599115 24.56700442 7.36844905 24.85164561 4 24 C1.46839342 21.84328289 0.16427011 20.14708058 -0.31396484 16.80761719 C-0.39374302 14.25573187 -0.34892378 11.7385921 -0.25 9.1875 C-0.23195313 8.30384766 -0.21390625 7.42019531 -0.1953125 6.50976562 C-0.14838513 4.33937457 -0.07664731 2.16954481 0 0 Z " fill="#5A6D81" transform="translate(761,632)"/>
<path d="M0 0 C0.598125 0.639375 1.19625 1.27875 1.8125 1.9375 C5.26438248 5.19213206 8.43100646 5.26836259 13.0703125 5.234375 C15.69003956 4.91618953 17.05961039 3.72479076 19 2 C19.99 2 20.98 2 22 2 C21.62118922 4.74637817 21.22167713 5.80049058 19.125 7.6875 C14.70149783 10.4196631 10.05910321 10.91147479 5 10 C2.25116562 8.3727301 0.00644631 6.490316 -2 4 C-2 3.34 -2 2.68 -2 2 C-1.34 2 -0.68 2 0 2 C0 1.34 0 0.68 0 0 Z " fill="#637587" transform="translate(686,646)"/>
<path d="M0 0 C0.66 0 1.32 0 2 0 C2 5.61 2 11.22 2 17 C-1.96 17.495 -1.96 17.495 -6 18 C-5.53523009 13.35230087 -4.14103317 9.96409749 -1.9375 5.9296875 C-0.98367761 3.96640309 -0.45422913 2.12919904 0 0 Z " fill="#357DCD" transform="translate(783,353)"/>
<path d="M0 0 C0.33 0 0.66 0 1 0 C1 3 1 6 1 9 C-3.57147994 11.35947352 -7.96715827 11.60923874 -13 11 C-16.5625 9.5 -16.5625 9.5 -19 8 C-19 6.68 -19 5.36 -19 4 C-18.30519531 4.32742188 -17.61039063 4.65484375 -16.89453125 4.9921875 C-13.63631172 6.12662831 -11.12550498 6.20056055 -7.6875 6.125 C-6.61886719 6.10695313 -5.55023437 6.08890625 -4.44921875 6.0703125 C-3.23685547 6.03550781 -3.23685547 6.03550781 -2 6 C-1.34 4.02 -0.68 2.04 0 0 Z " fill="#687A8A" transform="translate(606,645)"/>
<path d="M0 0 C0.99 0 1.98 0 3 0 C3 0.66 3 1.32 3 2 C5.27076842 2.02699725 7.54162821 2.04639453 9.8125 2.0625 C11.70935547 2.07990234 11.70935547 2.07990234 13.64453125 2.09765625 C16.99605237 2.16159116 16.99605237 2.16159116 20 1 C20.33 2.32 20.66 3.64 21 5 C17.47960293 7.34693138 15.79942991 7.32723764 11.625 7.375 C9.94277344 7.41753906 9.94277344 7.41753906 8.2265625 7.4609375 C4.35294015 6.90756288 2.69560214 5.79656102 0 3 C0 2.01 0 1.02 0 0 Z " fill="#6B7C8D" transform="translate(650,649)"/>
<path d="M0 0 C0.99 0.33 1.98 0.66 3 1 C2.50113281 1.35449219 2.00226563 1.70898438 1.48828125 2.07421875 C-11.29908273 11.5556933 -20.41581886 22.07925193 -28 36 C-28.99148704 37.67174496 -29.9880093 39.34058667 -31 41 C-31.33 40.34 -31.66 39.68 -32 39 C-28.80199016 31.66772086 -24.56281587 24.96863252 -19.48046875 18.8046875 C-17.83467012 16.85910388 -17.83467012 16.85910388 -16 14 C-15.34 14 -14.68 14 -14 14 C-13.731875 13.360625 -13.46375 12.72125 -13.1875 12.0625 C-12 10 -12 10 -9 9 C-9 8.34 -9 7.68 -9 7 C-7.13671875 5.23828125 -7.13671875 5.23828125 -4.6875 3.3125 C-3.88699219 2.66925781 -3.08648437 2.02601563 -2.26171875 1.36328125 C-1.51535156 0.91339844 -0.76898438 0.46351563 0 0 Z " fill="#2C92DD" transform="translate(460,316)"/>
<path d="M0 0 C0.33 0 0.66 0 1 0 C1.13277344 0.71027344 1.26554688 1.42054688 1.40234375 2.15234375 C1.57894531 3.07144531 1.75554688 3.99054687 1.9375 4.9375 C2.19853516 6.31228516 2.19853516 6.31228516 2.46484375 7.71484375 C2.77714988 9.95289844 2.77714988 9.95289844 4 11 C5.47648876 11.09823996 6.95775417 11.12973519 8.4375 11.125 C9.24058594 11.12757813 10.04367187 11.13015625 10.87109375 11.1328125 C13.05397931 11.13578326 13.05397931 11.13578326 15 10 C15.66 10.33 16.32 10.66 17 11 C17 11.99 17 12.98 17 14 C12.02663268 15.98934693 8.27795367 16.67021634 3 16 C0.80503835 14.18056191 -0.39372428 12.40941357 -2 10 C-1.34 10 -0.68 10 0 10 C0 6.7 0 3.4 0 0 Z " fill="#6C7E8E" transform="translate(793,640)"/>
<path d="M0 0 C0.94137255 2.82411765 1.11725382 4.52918032 1.09765625 7.44921875 C1.09282227 8.72055664 1.09282227 8.72055664 1.08789062 10.01757812 C1.07951172 10.89865234 1.07113281 11.77972656 1.0625 12.6875 C1.05798828 13.58017578 1.05347656 14.47285156 1.04882812 15.39257812 C1.03704983 17.59511987 1.02060164 19.79752599 1 22 C0.01 22 -0.98 22 -2 22 C-5.24555938 17.13166092 -4.60000213 11.69304349 -4 6 C-2.94028556 3.41982571 -1.90219222 2.08052274 0 0 Z " fill="#6A7C8D" transform="translate(685,626)"/>
<path d="M0 0 C4.46720803 0.19464959 8.06880111 0.50589447 12.0625 2.625 C14 5 14 5 14.5 8.5625 C14 12 14 12 12.5 13.9375 C12.005 14.288125 11.51 14.63875 11 15 C10 14 10 14 9.6875 10.625 C9.33993131 7.02957457 9.33993131 7.02957457 7.25 5.125 C4.82272946 3.91136473 2.68060559 3.37230633 0 3 C0 2.01 0 1.02 0 0 Z " fill="#5A6E83" transform="translate(660,638)"/>
<path d="M0 0 C0.99 0.33 1.98 0.66 3 1 C3 2.65 3 4.3 3 6 C3.66 6 4.32 6 5 6 C5.32613281 6.60328125 5.65226563 7.2065625 5.98828125 7.828125 C6.42527344 8.62734375 6.86226562 9.4265625 7.3125 10.25 C7.74175781 11.03890625 8.17101562 11.8278125 8.61328125 12.640625 C9.93764505 14.99741811 9.93764505 14.99741811 11.515625 17.0078125 C13.60055074 19.80600231 15.05560808 22.86625764 16.62109375 25.9765625 C18.18350585 28.26928054 19.45086691 28.99333598 22 30 C22 31.65 22 33.3 22 35 C21.34 35 20.68 35 20 35 C18.69067383 33.35449219 18.69067383 33.35449219 17.20703125 31.046875 C16.66199951 30.20503662 16.11696777 29.36319824 15.55541992 28.49584961 C14.98025635 27.58971924 14.40509277 26.68358887 13.8125 25.75 C13.22895752 24.83935791 12.64541504 23.92871582 12.04418945 22.99047852 C0 4.10410382 0 4.10410382 0 0 Z " fill="#E73841" transform="translate(718,198)"/>
<path d="M0 0 C-1.875 3.875 -1.875 3.875 -3 5 C-2.01 5.33 -1.02 5.66 0 6 C0 5.34 0 4.68 0 4 C1.32 4.33 2.64 4.66 4 5 C2.04480616 6.17192047 0.0857461 7.3373929 -1.875 8.5 C-2.96554687 9.1496875 -4.05609375 9.799375 -5.1796875 10.46875 C-8 12 -8 12 -10 12 C-10 11.01 -10 10.02 -10 9 C-10.99 8.34 -11.98 7.68 -13 7 C-11.21190303 5.82786955 -9.41940875 4.66244474 -7.625 3.5 C-6.62726562 2.8503125 -5.62953125 2.200625 -4.6015625 1.53125 C-2 0 -2 0 0 0 Z " fill="#F4DCDA" transform="translate(813,210)"/>
<path d="M0 0 C0.66 0 1.32 0 2 0 C2.05394705 2.60444348 2.09364469 5.20776998 2.125 7.8125 C2.14175781 8.55048828 2.15851562 9.28847656 2.17578125 10.04882812 C2.21074628 13.91246426 2.19397555 15.70903668 0 19 C-2 17 -4 15 -6 13 C-7.34747084 12.76924918 -8.70377565 12.58846937 -10.0625 12.4375 C-11.361875 12.293125 -12.66125 12.14875 -14 12 C-13.67 11.34 -13.34 10.68 -13 10 C-11.58430936 9.91832554 -10.16723195 9.86050302 -8.75 9.8125 C-7.96109375 9.77769531 -7.1721875 9.74289062 -6.359375 9.70703125 C-4 10 -4 10 0 13 C0 8.71 0 4.42 0 0 Z " fill="#4D6378" transform="translate(810,622)"/>
<path d="M0 0 C0.33 0 0.66 0 1 0 C1.78693051 9.98527382 1.78693051 9.98527382 -1.375 14.0625 C-2.24125 14.701875 -3.1075 15.34125 -4 16 C-4.66 16.66 -5.32 17.32 -6 18 C-8.68839385 18.26991906 -11.29141936 18.08737357 -14 18 C-14 17.67 -14 17.34 -14 17 C-12.35 16.67 -10.7 16.34 -9 16 C-10.65 15.67 -12.3 15.34 -14 15 C-14 14.67 -14 14.34 -14 14 C-9.545 13.505 -9.545 13.505 -5 13 C-4.34 9.37 -3.68 5.74 -3 2 C-2.67 2 -2.34 2 -2 2 C-2 4.31 -2 6.62 -2 9 C-1.34 9 -0.68 9 0 9 C0 6.03 0 3.06 0 0 Z " fill="#84929F" transform="translate(752,638)"/>
<path d="M0 0 C4.99183607 -0.43617985 8.73773073 -0.75736156 13.125 1.875 C15.75736156 6.26226927 15.43617985 10.00816393 15 15 C14.34 15 13.68 15 13 15 C12.938125 13.948125 12.87625 12.89625 12.8125 11.8125 C11.83215217 7.21240631 10.79174437 5.74296401 7 3 C4.26566957 2.31641739 1.83967928 2.14439047 -1 2 C-0.67 1.34 -0.34 0.68 0 0 Z " fill="#54687B" transform="translate(737,632)"/>
<path d="M0 0 C18.81 0.33 37.62 0.66 57 1 C57 1.33 57 1.66 57 2 C50.00774594 2.19424049 43.01520695 2.37149226 36.0222168 2.53710938 C33.64483971 2.59539826 31.26755357 2.65753206 28.89038086 2.72363281 C25.46745367 2.81813739 22.04443441 2.89867132 18.62109375 2.9765625 C17.0347538 3.02485703 17.0347538 3.02485703 15.41636658 3.0741272 C9.83455948 3.1866651 5.26565034 2.90121448 0 1 C0 0.67 0 0.34 0 0 Z " fill="#854A63" transform="translate(668,246)"/>
<path d="M0 0 C0.66 0.33 1.32 0.66 2 1 C1.52269162 2.4589426 1.04308958 3.91713496 0.5625 5.375 C0.29566406 6.18710938 0.02882813 6.99921875 -0.24609375 7.8359375 C-1 10 -1 10 -2 12 C-3.65 12 -5.3 12 -7 12 C-8.33463796 7.63209393 -8.33463796 7.63209393 -6.875 4.875 C-4.73857437 2.73857437 -2.71568515 1.3230261 0 0 Z " fill="#F5F4F5" transform="translate(775,204)"/>
<path d="M0 0 C0.99 0 1.98 0 3 0 C3 5.94 3 11.88 3 18 C2.01 18.33 1.02 18.66 0 19 C0 12.73 0 6.46 0 0 Z " fill="#55697D" transform="translate(778,632)"/>
<path d="M0 0 C3.11398457 -0.21231713 5.45304074 -0.21590497 8.375 0.9375 C10.99520534 4.26314524 10.30779383 7.9217317 10 12 C9.34 12 8.68 12 8 12 C8 9.69 8 7.38 8 5 C4.43928688 3.95117609 0.94472103 3.69613047 -2.75 3.4375 C-3.92046875 3.35371094 -5.0909375 3.26992188 -6.296875 3.18359375 C-7.18890625 3.12300781 -8.0809375 3.06242188 -9 3 C-9 2.67 -9 2.34 -9 2 C-4.545 1.505 -4.545 1.505 0 1 C0 0.67 0 0.34 0 0 Z " fill="#62778A" transform="translate(632,623)"/>
<path d="M0 0 C1.65 0 3.3 0 5 0 C4.67 1.65 4.34 3.3 4 5 C4.62567871 4.99476318 5.25135742 4.98952637 5.89599609 4.98413086 C8.72232057 4.96338382 11.54862905 4.95034714 14.375 4.9375 C15.85226562 4.92493164 15.85226562 4.92493164 17.359375 4.91210938 C18.77089844 4.90727539 18.77089844 4.90727539 20.2109375 4.90234375 C21.51490479 4.89448853 21.51490479 4.89448853 22.84521484 4.88647461 C25 5 25 5 27 6 C26.67 6.99 26.34 7.98 26 9 C26 8.34 26 7.68 26 7 C25.42894531 7.01160156 24.85789062 7.02320313 24.26953125 7.03515625 C19.19575745 7.09162114 14.13070889 6.99431949 9.0625 6.75 C7.44021484 6.68039063 7.44021484 6.68039063 5.78515625 6.609375 C3 6 3 6 1.12109375 4.078125 C0 2 0 2 0 0 Z " fill="#F0BBB7" transform="translate(809,247)"/>
<path d="M0 0 C11.70615034 -0.55353075 11.70615034 -0.55353075 16 3 C15.67 3.99 15.34 4.98 15 6 C10.38 5.34 5.76 4.68 1 4 C1.99 3.34 2.98 2.68 4 2 C2.68 1.34 1.36 0.68 0 0 Z " fill="#738799" transform="translate(657,622)"/>
<path d="M0 0 C0.33 0 0.66 0 1 0 C1.33 10.89 1.66 21.78 2 33 C-0.31 32.34 -2.62 31.68 -5 31 C-5 30.67 -5 30.34 -5 30 C-3.35 30 -1.7 30 0 30 C0 20.1 0 10.2 0 0 Z " fill="#EDD8D8" transform="translate(748,174)"/>
<path d="M0 0 C2.52394612 3.12488567 4.39701907 6.31314387 6 10 C5.67 10.66 5.34 11.32 5 12 C4.34 11.67 3.68 11.34 3 11 C2.67 11.99 2.34 12.98 2 14 C0.35 10.37 -1.3 6.74 -3 3 C-2.34 3 -1.68 3 -1 3 C-0.67 2.01 -0.34 1.02 0 0 Z " fill="#7C8C9D" transform="translate(522,627)"/>
<path d="M0 0 C1.32 0.33 2.64 0.66 4 1 C4.33 2.32 4.66 3.64 5 5 C5.66 5 6.32 5 7 5 C7.33 4.34 7.66 3.68 8 3 C7.45276317 6.37462715 6.9451 8.08235 5 11 C5.99 11.33 6.98 11.66 8 12 C6.68 12 5.36 12 4 12 C3.32645501 10.56570999 2.66140299 9.12742943 2 7.6875 C1.62875 6.88699219 1.2575 6.08648438 0.875 5.26171875 C0 3 0 3 0 0 Z " fill="#6B7D90" transform="translate(525,638)"/>
<path d="M0 0 C0.6875 1.625 0.6875 1.625 1 4 C-0.4375 7.25 -0.4375 7.25 -2 10 C-2.66 10 -3.32 10 -4 10 C-4.99 7.03 -5.98 4.06 -7 1 C-2.25 0 -2.25 0 0 0 Z " fill="#3173C6" transform="translate(742,384)"/>
<path d="M0 0 C0.33 0.66 0.66 1.32 1 2 C3.01669827 3.13350534 3.01669827 3.13350534 5 4 C1.67692308 7.93846154 1.67692308 7.93846154 -1.75 8.25 C-2.4925 8.1675 -3.235 8.085 -4 8 C-3.40138258 5.64828869 -2.73075648 3.3140622 -2 1 C-1.34 0.67 -0.68 0.34 0 0 Z " fill="#228FC2" transform="translate(783,227)"/>
<path d="M0 0 C1.1875 1.5625 1.1875 1.5625 1.1875 3.5625 C-2.18712715 3.01526317 -3.89485 2.5076 -6.8125 0.5625 C-9.09898848 0.32142674 -9.09898848 0.32142674 -11.5 0.4375 C-12.30824219 0.45554687 -13.11648438 0.47359375 -13.94921875 0.4921875 C-14.56410156 0.51539063 -15.17898438 0.53859375 -15.8125 0.5625 C-15.4825 -0.0975 -15.1525 -0.7575 -14.8125 -1.4375 C-4.25334756 -3.37334461 -4.25334756 -3.37334461 0 0 Z " fill="#758797" transform="translate(706.8125,626.4375)"/>
<path d="M0 0 C1.91595968 -0.08133791 3.83291932 -0.13934367 5.75 -0.1875 C7.35101562 -0.23970703 7.35101562 -0.23970703 8.984375 -0.29296875 C12.32849074 0.03191296 13.68710342 0.59166836 16 3 C16 3.99 16 4.98 16 6 C8.575 5.01 8.575 5.01 1 4 C1 3.67 1 3.34 1 3 C4.3 3 7.6 3 11 3 C11 2.34 11 1.68 11 1 C7.37 1 3.74 1 0 1 C0 0.67 0 0.34 0 0 Z " fill="#8192A2" transform="translate(593,622)"/>
<path d="M0 0 C1.12781025 1.69171538 2.25263933 3.38545543 3.3671875 5.0859375 C6.08374563 9.21003871 8.82149753 13.21024706 12 17 C11.01 17 10.02 17 9 17 C7.62131719 15.37064759 6.28725907 13.70250393 5 12 C4.34 11.67 3.68 11.34 3 11 C3 10.01 3 9.02 3 8 C2.01 8 1.02 8 0 8 C-0.79953138 4.71303767 -1.09658936 3.28976808 0 0 Z " fill="#348BB8" transform="translate(654,185)"/>
<path d="M0 0 C2.97 0.495 2.97 0.495 6 1 C6 1.99 6 2.98 6 4 C6.69867187 3.97679687 7.39734375 3.95359375 8.1171875 3.9296875 C9.02726563 3.91164063 9.93734375 3.89359375 10.875 3.875 C12.23238281 3.84019531 12.23238281 3.84019531 13.6171875 3.8046875 C16 4 16 4 18 6 C12.39 5.67 6.78 5.34 1 5 C0.67 3.35 0.34 1.7 0 0 Z " fill="#1686CC" transform="translate(803,287)"/>
<path d="M0 0 C0.474375 0.61875 0.94875 1.2375 1.4375 1.875 C4.97804547 4.8110621 8.53827956 5.27544711 13 6 C13 6.33 13 6.66 13 7 C6.25 7.125 6.25 7.125 4 6 C4.33 6.99 4.66 7.98 5 9 C2.13302508 7.71480435 0.02392288 6.42870746 -2 4 C-2 3.34 -2 2.68 -2 2 C-1.34 2 -0.68 2 0 2 C0 1.34 0 0.68 0 0 Z " fill="#778797" transform="translate(686,646)"/>
<path d="M0 0 C0 0.33 0 0.66 0 1 C-4.455 1.495 -4.455 1.495 -9 2 C-9 2.99 -9 3.98 -9 5 C-11.375 6.5625 -11.375 6.5625 -14 8 C-14.66 8.66 -15.32 9.32 -16 10 C-15.71610268 6.68786459 -14.96676604 4.95175715 -13.0625 2.1875 C-8.7518078 -0.89156586 -5.13347212 -0.44855582 0 0 Z " fill="#708191" transform="translate(746,631)"/>
<path d="M0 0 C4.21878192 -0.19622241 7.17010894 0.19769832 11 2 C8.63188533 2.76117972 7.3565335 3.10804045 4.9375 2.375 C4.298125 2.25125 3.65875 2.1275 3 2 C0.42271763 4.06581138 -0.62487168 6.10081773 -1.6875 9.1875 C-1.93886719 9.90292969 -2.19023438 10.61835937 -2.44921875 11.35546875 C-2.72185547 12.16951172 -2.72185547 12.16951172 -3 13 C-3.33 13 -3.66 13 -4 13 C-3.50269348 8.02693484 -2.44697666 4.36200187 0 0 Z " fill="#F4A6A8" transform="translate(762,111)"/>
<path d="M0 0 C4.95 0 9.9 0 15 0 C14.67 0.99 14.34 1.98 14 3 C7.07 2.505 7.07 2.505 0 2 C0 1.34 0 0.68 0 0 Z " fill="#687E8E" transform="translate(722,532)"/>
<path d="M0 0 C0.99 0.33 1.98 0.66 3 1 C3 2.65 3 4.3 3 6 C3.66 6 4.32 6 5 6 C6.5625 8.8125 6.5625 8.8125 8 12 C7.67 12.99 7.34 13.98 7 15 C5.82539808 13.06730041 4.66055528 11.12866687 3.5 9.1875 C2.8503125 8.10855469 2.200625 7.02960938 1.53125 5.91796875 C0 3 0 3 0 0 Z " fill="#E82D35" transform="translate(718,198)"/>
<path d="M0 0 C0.33 0 0.66 0 1 0 C1 3 1 6 1 9 C-0.65 9.33 -2.3 9.66 -4 10 C-4 9.67 -4 9.34 -4 9 C-6.64 8.67 -9.28 8.34 -12 8 C-12 7.67 -12 7.34 -12 7 C-8.7 6.67 -5.4 6.34 -2 6 C-1.34 4.02 -0.68 2.04 0 0 Z " fill="#788998" transform="translate(606,645)"/>
<path d="M0 0 C2.3125 -0.3125 2.3125 -0.3125 5 0 C6.81883009 2.3832946 8 3.95818337 8 7 C6.68 7 5.36 7 4 7 C2.02 3.535 2.02 3.535 0 0 Z " fill="#607589" transform="translate(635,648)"/>
<path d="M0 0 C3.61941735 1.50239966 6.7321794 2.82145293 10 5 C9.030625 4.979375 8.06125 4.95875 7.0625 4.9375 C4.12534105 4.64381501 4.12534105 4.64381501 3 6 C3.99 6.33 4.98 6.66 6 7 C1.25 6.25 1.25 6.25 -1 4 C-0.625 1.875 -0.625 1.875 0 0 Z " fill="#6C7E8F" transform="translate(591,633)"/>
<path d="M0 0 C0.78375 0.185625 1.5675 0.37125 2.375 0.5625 C4.97089775 1.25962266 4.97089775 1.25962266 7 0 C6.67 1.98 6.34 3.96 6 6 C5.01 6 4.02 6 3 6 C2.67 5.01 2.34 4.02 2 3 C1.34 3 0.68 3 0 3 C0 2.01 0 1.02 0 0 Z " fill="#2398C9" transform="translate(756,229)"/>
<path d="M0 0 C0.66 0 1.32 0 2 0 C0.54997977 4.10839064 -1.3979134 7.50344613 -4 11 C-4.66 11 -5.32 11 -6 11 C-6 8.69 -6 6.38 -6 4 C-4.02 4.99 -4.02 4.99 -2 6 C-1.34 4.02 -0.68 2.04 0 0 Z " fill="#E6353B" transform="translate(758,222)"/>
<path d="M0 0 C0.33 0.66 0.66 1.32 1 2 C0.01 2 -0.98 2 -2 2 C-1.67 2.763125 -1.34 3.52625 -1 4.3125 C0 7 0 7 0 10 C-0.99 9.67 -1.98 9.34 -3 9 C-4.6875 5.4375 -4.6875 5.4375 -6 2 C-4.02 1.34 -2.04 0.68 0 0 Z " fill="#2C64A0" transform="translate(731,222)"/>
<path d="M0 0 C1.485 0.99 1.485 0.99 3 2 C3.25660094 5.07921132 3.39431504 7.21136993 2 10 C1.01 9.67 0.02 9.34 -1 9 C-1.09765625 2.84765625 -1.09765625 2.84765625 -1 1 C-0.67 0.67 -0.34 0.34 0 0 Z " fill="#4E657B" transform="translate(607,642)"/>
<path d="M0 0 C0.33 0.66 0.66 1.32 1 2 C1.66 2 2.32 2 3 2 C1.25 7.75 1.25 7.75 -1 10 C-1 9.34 -1 8.68 -1 8 C-1.66 8 -2.32 8 -3 8 C-1.125 2.25 -1.125 2.25 0 0 Z " fill="#66798D" transform="translate(538,629)"/>
<path d="M0 0 C0.33 0 0.66 0 1 0 C0.67 4.62 0.34 9.24 0 14 C-1.99825961 11.00261059 -2.27550398 10.36652492 -2.25 7 C-2.25515625 6.319375 -2.2603125 5.63875 -2.265625 4.9375 C-2 3 -2 3 0 0 Z " fill="#495B6F" transform="translate(684,631)"/>
<path d="M0 0 C1.45742463 -0.08096803 2.91612807 -0.13917774 4.375 -0.1875 C5.18710937 -0.22230469 5.99921875 -0.25710938 6.8359375 -0.29296875 C7.55007813 -0.19628906 8.26421875 -0.09960938 9 0 C9.66 0.99 10.32 1.98 11 3 C6.8725485 3 3.084979 2.54466387 -1 2 C-0.67 1.34 -0.34 0.68 0 0 Z " fill="#576C81" transform="translate(797,632)"/>
<path d="M0 0 C0 0.66 0 1.32 0 2 C-6.625 6 -6.625 6 -10 6 C-9.67 4.35 -9.34 2.7 -9 1 C-8.401875 1.20625 -7.80375 1.4125 -7.1875 1.625 C-4.0126065 2.16926746 -3.11147803 0 0 0 Z " fill="#D33946" transform="translate(770,234)"/>
<path d="M0 0 C1.8871875 0.061875 1.8871875 0.061875 3.8125 0.125 C3.8125 0.455 3.8125 0.785 3.8125 1.125 C1.5025 1.455 -0.8075 1.785 -3.1875 2.125 C-3.1875 3.115 -3.1875 4.105 -3.1875 5.125 C-4.85416667 5.125 -6.52083333 5.125 -8.1875 5.125 C-6.68328007 0.61234022 -4.4443381 -0.145716 0 0 Z " fill="#788A9A" transform="translate(800.1875,630.875)"/>
<path d="M0 0 C0 1.98 0 3.96 0 6 C-0.99 6.33 -1.98 6.66 -3 7 C-3.33 7.99 -3.66 8.98 -4 10 C-4.66 10 -5.32 10 -6 10 C-3.54716981 0 -3.54716981 0 0 0 Z " fill="#D4DBE0" transform="translate(513,557)"/>
<path d="M0 0 C0.99 0.33 1.98 0.66 3 1 C3 1.99 3 2.98 3 4 C1.68 4.33 0.36 4.66 -1 5 C-1 4.34 -1 3.68 -1 3 C-3.64 3 -6.28 3 -9 3 C-9 2.67 -9 2.34 -9 2 C-6.94921875 1.77213542 -4.8984375 1.54427083 -2.84765625 1.31640625 C-0.98859771 1.18113386 -0.98859771 1.18113386 0 0 Z " fill="#919FAA" transform="translate(807,650)"/>
<path d="M0 0 C4.75 0.75 4.75 0.75 7 3 C7.125 6.125 7.125 6.125 7 9 C6.67 9 6.34 9 6 9 C5.34 7.02 4.68 5.04 4 3 C3.01 3.33 2.02 3.66 1 4 C0.34 3.67 -0.32 3.34 -1 3 C-0.67 2.01 -0.34 1.02 0 0 Z " fill="#778999" transform="translate(604,640)"/>
<path d="M0 0 C5.94 0.33 11.88 0.66 18 1 C18 1.33 18 1.66 18 2 C11.45688671 2.87557031 6.23352019 3.3548854 0 1 C0 0.67 0 0.34 0 0 Z " fill="#6B5171" transform="translate(668,246)"/>
<path d="M0 0 C0.66 0 1.32 0 2 0 C2.33 1.98 2.66 3.96 3 6 C0.69 5.34 -1.62 4.68 -4 4 C-3.01 3.67 -2.02 3.34 -1 3 C-0.67 2.01 -0.34 1.02 0 0 Z " fill="#B23D46" transform="translate(729,234)"/>
<path d="M0 0 C0.66 1.32 1.32 2.64 2 4 C-0.93593133 4 -3.76556416 3.77500573 -6.6875 3.5 C-7.68136719 3.4071875 -8.67523437 3.314375 -9.69921875 3.21875 C-10.45847656 3.1465625 -11.21773437 3.074375 -12 3 C-12 2.67 -12 2.34 -12 2 C-10.95199219 1.90912109 -10.95199219 1.90912109 -9.8828125 1.81640625 C-8.97273437 1.73261719 -8.06265625 1.64882813 -7.125 1.5625 C-6.22007812 1.48128906 -5.31515625 1.40007813 -4.3828125 1.31640625 C-1.98889139 1.13010715 -1.98889139 1.13010715 0 0 Z " fill="#7F8E9D" transform="translate(669,650)"/>
<path d="M0 0 C0.33 0 0.66 0 1 0 C1.33 3.96 1.66 7.92 2 12 C1.01 12 0.02 12 -1 12 C-1.33 10.02 -1.66 8.04 -2 6 C-1.67 6 -1.34 6 -1 6 C-0.67 4.02 -0.34 2.04 0 0 Z " fill="#5C6E82" transform="translate(684,636)"/>
<path d="M0 0 C0.66 0.33 1.32 0.66 2 1 C2 3.31 2 5.62 2 8 C1.01 8.33 0.02 8.66 -1 9 C-0.67 6.03 -0.34 3.06 0 0 Z " fill="#4A5E72" transform="translate(779,642)"/>
<path d="M0 0 C3.63 0 7.26 0 11 0 C10.67 0.99 10.34 1.98 10 3 C5.06071112 3.3367697 4.21507278 3.16130459 0 0 Z " fill="#6D8293" transform="translate(657,622)"/>
<path d="M0 0 C1.4540625 1.2375 1.4540625 1.2375 2.9375 2.5 C5.47022001 5.10539608 5.47022001 5.10539608 7 5 C7 6.65 7 8.3 7 10 C6.34 10 5.68 10 5 10 C3.7109375 8.3203125 3.7109375 8.3203125 2.375 6.125 C1.92898438 5.40570313 1.48296875 4.68640625 1.0234375 3.9453125 C0 2 0 2 0 0 Z " fill="#D93039" transform="translate(733,223)"/>
<path d="M0 0 C0.99 0 1.98 0 3 0 C2.67 1.65 2.34 3.3 2 5 C0.35 5.33 -1.3 5.66 -3 6 C-2.01 4.02 -1.02 2.04 0 0 Z " fill="#617385" transform="translate(748,648)"/>
<path d="M0 0 C0.66 0.33 1.32 0.66 2 1 C2 3.64 2 6.28 2 9 C1.01 9 0.02 9 -1 9 C-0.67 6.03 -0.34 3.06 0 0 Z " fill="#4F657A" transform="translate(671,643)"/>
<path d="M0 0 C2.31 0 4.62 0 7 0 C6.67 0.99 6.34 1.98 6 3 C4.02 3 2.04 3 0 3 C0 2.01 0 1.02 0 0 Z " fill="#5D7083" transform="translate(718,653)"/>
<path d="M0 0 C0.66 0.99 1.32 1.98 2 3 C0.7260411 5.03833424 -0.61061923 7.03852126 -2 9 C-2.66 9 -3.32 9 -4 9 C-2.94124926 5.59687262 -1.99097846 2.98646769 0 0 Z " fill="#DD4347" transform="translate(772,216)"/>
<path d="M0 0 C0.66 1.32 1.32 2.64 2 4 C-1.99560608 6.83022097 -5.42737323 5.76210446 -10 5 C-10 4.67 -10 4.34 -10 4 C-6.97265625 3.75585938 -6.97265625 3.75585938 -3.9453125 3.51171875 C-1.60480784 3.12606964 -1.60480784 3.12606964 0 0 Z " fill="#788998" transform="translate(777,648)"/>
<path d="M0 0 C-0.375 1.9375 -0.375 1.9375 -1 4 C-1.99 4.495 -1.99 4.495 -3 5 C-5.125 4.0625 -5.125 4.0625 -7 3 C-3.375 0 -3.375 0 0 0 Z " fill="#6D8192" transform="translate(708,648)"/>
<path d="M0 0 C0.99 0 1.98 0 3 0 C3.33 1.65 3.66 3.3 4 5 C2.68 5.33 1.36 5.66 0 6 C0 4.02 0 2.04 0 0 Z " fill="#455B71" transform="translate(517,624)"/>
<path d="M0 0 C2.97 0.495 2.97 0.495 6 1 C6 1.99 6 2.98 6 4 C4.02 4 2.04 4 0 4 C0 2.68 0 1.36 0 0 Z " fill="#1899CC" transform="translate(803,287)"/>
<path d="M0 0 C1.9451 2.91765 2.45276317 4.62537285 3 8 C2.01 8 1.02 8 0 8 C-0.79953138 4.71303767 -1.09658936 3.28976808 0 0 Z " fill="#3995C7" transform="translate(654,185)"/>
<path d="M0 0 C0.33 0.66 0.66 1.32 1 2 C-0.25 5.0625 -0.25 5.0625 -2 8 C-2.99 8.33 -3.98 8.66 -5 9 C-3.7508258 5.54074837 -2.32472205 2.85306797 0 0 Z " fill="#F17476" transform="translate(661,148)"/>
<path d="M0 0 C0.33 1.32 0.66 2.64 1 4 C-0.9375 6.25 -0.9375 6.25 -3 8 C-3.66 7.67 -4.32 7.34 -5 7 C-3.35 4.69 -1.7 2.38 0 0 Z " fill="#F6CFCB" transform="translate(834,257)"/>
<path d="M0 0 C1.48117801 0.28127421 2.95993249 0.57533732 4.4375 0.875 C5.67306641 1.11863281 5.67306641 1.11863281 6.93359375 1.3671875 C7.61550781 1.57601562 8.29742188 1.78484375 9 2 C9.33 2.66 9.66 3.32 10 4 C7.98177083 3.70703125 5.96354167 3.4140625 3.9453125 3.12109375 C1.91859333 2.8315703 1.91859333 2.8315703 0 4 C0 2.68 0 1.36 0 0 Z " fill="#0D7DC3" transform="translate(741,226)"/>
</svg>
